<?xml version="1.0" standalone="no"?>
<!DOCTYPE svg PUBLIC "-//W3C//DTD SVG 20010904//EN"
 "http://www.w3.org/TR/2001/REC-SVG-20010904/DTD/svg10.dtd">
<svg version="1.0" xmlns="http://www.w3.org/2000/svg"
 width="951.000000pt" height="626.000000pt" viewBox="0 0 951.000000 626.000000"
 preserveAspectRatio="xMidYMid meet">

<g transform="translate(0.000000,626.000000) scale(0.100000,-0.100000)"
fill="#000000" stroke="none">
<path d="M1650 6216 c-23 -24 -50 -57 -60 -74 -10 -16 -24 -33 -30 -37 -7 -5
-9 -21 -5 -46 7 -39 6 -40 -32 -55 -29 -12 -48 -31 -78 -80 -22 -35 -43 -64
-47 -64 -5 0 -8 -5 -8 -11 0 -6 -7 -17 -15 -25 -8 -9 -15 -23 -15 -32 1 -13 6
-11 24 10 13 15 26 24 29 21 11 -10 -6 -68 -23 -80 -13 -9 -19 -33 -23 -95 -3
-46 -13 -105 -23 -132 -13 -38 -14 -51 -5 -54 21 -7 30 -47 32 -147 2 -93 3
-98 30 -123 29 -25 49 -75 49 -122 0 -14 9 -42 20 -63 11 -20 20 -46 20 -58 0
-11 4 -28 10 -38 5 -10 11 -42 14 -71 3 -29 10 -58 17 -64 9 -8 10 -6 6 12 -4
17 -1 22 14 22 12 0 19 7 19 19 0 22 77 63 153 82 27 7 52 20 58 30 11 22 34
26 26 4 -4 -8 -2 -17 3 -20 6 -4 10 -1 10 5 0 7 12 10 28 9 48 -5 51 2 43 87
-1 6 -21 19 -46 29 -46 17 -116 14 -142 -7 -7 -6 -26 -2 -53 11 -44 21 -74 17
-99 -13 -30 -35 -34 -17 -27 117 8 155 28 312 39 301 4 -4 7 0 7 9 0 10 4 25
9 35 6 9 17 42 26 73 14 45 21 56 35 52 14 -4 19 3 24 31 6 32 10 35 31 30 26
-6 109 28 123 50 10 18 57 29 115 27 56 -1 120 24 133 53 5 12 24 26 42 32 19
6 38 17 42 24 5 8 12 12 15 8 4 -3 21 -2 38 3 24 7 35 5 49 -8 13 -12 21 -14
26 -6 12 20 80 27 105 11 12 -8 38 -15 58 -15 19 0 41 -3 47 -7 7 -4 12 -5 12
-1 0 3 16 -2 36 -10 47 -20 51 -19 29 5 -27 30 -12 34 22 6 21 -18 33 -22 45
-15 11 6 19 6 23 -1 3 -5 14 -10 24 -10 10 0 24 -7 31 -15 7 -8 17 -12 22 -9
5 3 23 -6 39 -22 16 -15 29 -24 29 -20 0 5 7 2 16 -5 14 -11 18 -10 30 6 12
16 18 17 51 8 21 -6 49 -11 62 -12 14 0 29 -7 33 -16 5 -8 17 -15 26 -15 10 0
22 -10 27 -22 6 -14 22 -25 39 -28 16 -3 31 -11 34 -18 2 -7 -2 -10 -10 -7
-10 4 -14 -5 -15 -34 -1 -22 2 -43 7 -46 5 -3 7 -12 3 -20 -3 -8 0 -15 6 -15
6 0 11 -18 11 -43 0 -54 51 -156 67 -135 19 23 20 97 6 363 -7 143 -15 307
-18 365 -3 58 -8 117 -11 133 l-6 27 -733 0 -733 0 -42 -44z"/>
<path d="M4575 6249 c-4 -5 -30 -20 -58 -33 -71 -31 -121 -91 -177 -210 -59
-124 -67 -173 -74 -456 -4 -166 -2 -227 8 -268 18 -67 19 -65 -17 -80 -34 -14
-67 -8 -67 14 0 8 -5 14 -10 14 -15 0 -92 -39 -112 -58 -13 -10 -21 -12 -30
-4 -7 5 -30 10 -50 9 -34 -1 -38 -4 -39 -26 0 -15 -3 -21 -5 -14 -9 20 -124
-62 -180 -127 -72 -85 -110 -200 -122 -365 -7 -113 -7 -120 16 -169 14 -28 33
-59 43 -69 12 -11 19 -32 19 -53 0 -32 -2 -34 -20 -24 -11 6 -20 17 -20 25 0
22 -27 18 -33 -4 -3 -14 0 -17 13 -14 12 3 19 -3 23 -17 4 -15 11 -21 21 -17
13 5 16 -1 16 -26 0 -29 -13 -96 -26 -139 -4 -12 0 -18 11 -18 12 0 14 6 9 27
-6 21 -4 25 8 21 11 -5 22 14 45 75 17 45 36 100 42 122 18 61 31 82 55 92 24
10 56 6 56 -8 0 -17 25 -9 54 16 16 14 25 25 21 25 -5 0 0 6 10 14 11 8 23 12
26 10 4 -2 12 3 19 11 7 8 20 15 30 15 10 0 21 7 24 16 3 8 11 12 17 8 8 -4 7
-9 -2 -16 -9 -5 5 -7 39 -5 30 2 70 -2 90 -9 20 -7 62 -13 92 -14 31 0 60 -4
65 -9 11 -10 95 -31 133 -34 13 -1 29 -12 36 -25 7 -12 15 -19 19 -16 4 4 14
-1 23 -12 8 -10 12 -12 8 -4 -6 11 -2 11 12 -2 36 -32 55 -198 23 -198 -5 0
-9 4 -9 8 0 27 -154 45 -190 22 -13 -8 -13 -11 0 -24 10 -10 43 -16 106 -18
102 -3 95 4 80 -84 -7 -41 -7 -41 19 -36 18 3 23 7 14 13 -10 6 -10 11 -1 22
7 7 9 17 6 20 -12 12 26 57 49 57 30 0 47 12 52 38 5 27 -6 28 -29 3 -13 -15
-14 -20 -4 -25 7 -3 4 -5 -7 -3 -27 3 -31 39 -5 62 11 10 20 13 20 7 0 -7 8
-12 18 -12 14 0 14 2 3 9 -12 8 -12 14 -1 40 7 17 15 29 19 27 3 -2 7 10 7 27
2 54 16 142 24 152 4 6 3 37 -2 70 -6 33 -11 94 -12 137 -1 63 -5 82 -24 108
-28 37 -24 55 15 63 27 5 34 15 66 82 23 48 30 69 28 78 -1 5 4 5 11 1 7 -5
45 -9 85 -9 64 0 75 -3 100 -27 36 -35 78 -37 94 -5 13 24 28 37 44 37 6 0 5
-3 -1 -8 -6 -4 -21 -34 -33 -67 -12 -32 -40 -78 -61 -101 -66 -72 -73 -94 -70
-224 1 -63 3 -149 4 -192 0 -42 5 -74 10 -71 4 3 5 -3 2 -14 -4 -12 6 -39 27
-73 26 -43 38 -54 55 -53 17 2 22 -2 20 -14 -2 -10 2 -18 9 -18 24 0 25 -15 4
-50 -13 -23 -16 -35 -8 -34 28 3 48 -2 42 -11 -3 -5 -1 -10 4 -10 6 0 11 -9
11 -20 0 -11 4 -20 9 -20 13 0 31 -57 31 -95 0 -25 -5 -35 -22 -41 -19 -6 -15
-8 22 -11 25 -3 53 -12 64 -21 18 -17 18 -16 1 23 -10 22 -27 74 -38 115 -17
64 -18 81 -8 118 11 39 31 58 31 29 0 -20 48 -81 70 -89 14 -5 18 -3 13 8 -3
9 1 14 13 14 27 0 84 37 84 55 0 21 17 19 23 -2 3 -10 4 -7 3 7 -1 14 -5 30
-9 37 -4 6 -2 15 5 19 8 5 6 10 -8 15 -17 7 -17 8 -1 8 19 1 22 12 8 27 -12
12 4 223 19 238 7 7 8 0 4 -24 -8 -41 5 -33 23 13 12 31 13 29 10 -25 -2 -32
0 -58 3 -58 4 0 10 -22 12 -49 3 -28 13 -62 22 -76 26 -40 30 -23 7 24 -26 51
-27 111 -1 193 11 34 20 71 20 81 0 10 7 17 18 17 28 -1 77 -51 111 -116 18
-33 45 -75 62 -93 28 -31 29 -34 12 -46 -10 -8 -49 -17 -88 -20 -101 -11 -148
-45 -60 -45 72 0 145 19 145 38 0 12 3 13 8 5 9 -14 120 -2 130 14 4 5 31 9
61 8 l54 -2 23 -69 c12 -38 25 -82 29 -99 l8 -30 9 35 c6 19 8 64 5 99 -6 73
5 117 37 146 56 52 70 352 22 454 -17 37 -144 173 -185 198 -51 32 -154 65
-209 67 -31 1 -61 -6 -89 -21 l-42 -22 -58 21 c-50 17 -74 20 -176 16 -100 -4
-117 -3 -113 9 4 8 6 18 6 23 0 4 10 10 22 13 12 4 19 9 15 13 -8 8 21 44 35
44 13 0 118 102 137 135 26 42 34 100 21 140 -7 22 -40 60 -91 106 -43 39 -79
76 -79 82 0 26 -146 302 -186 350 -45 55 -125 117 -201 156 -39 19 -58 21
-257 21 -140 0 -217 -4 -221 -11z m526 -211 c11 -21 11 -22 -4 -9 -10 7 -17
17 -17 22 0 15 9 10 21 -13z m-306 -13 c5 0 10 -9 10 -20 0 -13 6 -19 18 -17
10 2 17 -3 17 -13 0 -18 20 -21 20 -2 1 7 6 5 14 -5 7 -10 21 -18 30 -18 10 0
15 -4 11 -9 -7 -13 32 -132 49 -149 11 -12 17 -12 35 0 11 7 21 18 21 24 0 7
8 10 19 7 20 -5 55 23 46 38 -13 20 28 8 45 -13 18 -22 20 -22 36 -5 11 10 14
17 6 17 -7 0 -12 4 -12 10 0 12 68 -18 96 -43 36 -31 82 -145 99 -249 20 -119
15 -279 -9 -303 -8 -9 -23 -40 -32 -70 -14 -42 -26 -60 -53 -78 -54 -35 -126
-60 -158 -54 -178 35 -273 85 -313 164 -8 15 -17 30 -20 33 -14 14 -32 59 -26
69 4 5 -3 15 -15 21 -11 7 -18 14 -15 17 3 4 -3 12 -14 20 -10 7 -31 37 -45
66 -34 66 -28 104 20 143 31 25 34 32 29 61 -5 26 -3 33 10 33 9 0 16 5 16 10
0 19 28 10 33 -11 3 -12 10 -18 16 -15 6 4 7 14 4 22 -5 13 -1 15 15 10 68
-19 64 -20 57 5 -7 21 -6 22 8 11 13 -11 18 -10 29 7 8 12 18 18 21 14 4 -3 7
18 6 48 0 30 -3 48 -6 40 -4 -10 -9 -8 -20 10 l-14 24 5 -23 c3 -18 1 -22 -10
-18 -9 3 -14 -1 -14 -13 0 -31 -31 -19 -51 20 -19 38 -49 148 -49 182 0 12 4
16 13 10 6 -4 16 -8 22 -8z m-60 -66 c4 -21 10 -39 14 -39 4 0 15 -15 24 -34
14 -31 14 -38 2 -63 -21 -42 -95 -93 -95 -65 0 5 -10 18 -21 31 -17 18 -19 27
-11 44 6 12 14 42 18 67 3 25 10 50 15 56 6 7 9 16 7 20 -1 5 2 20 6 33 8 23
9 24 22 7 7 -10 16 -35 19 -57z m280 23 c12 -12 29 -36 38 -52 16 -26 16 -30
3 -30 -9 0 -16 5 -16 10 0 12 -67 46 -75 39 -2 -3 -1 -20 4 -37 11 -36 6 -40
-21 -15 -22 20 -24 66 -2 84 13 10 17 10 26 -2 10 -15 8 -4 -9 39 -6 15 -5 16
13 2 10 -8 28 -25 39 -38z m65 -1 c0 -8 3 -12 6 -8 3 3 15 -3 27 -13 29 -28
15 -35 -27 -15 -37 18 -61 40 -30 28 15 -5 13 0 -6 27 l-24 34 26 -19 c15 -11
28 -26 28 -34z m-498 -176 c3 -13 1 -22 -3 -19 -9 5 -13 44 -5 44 2 0 6 -11 8
-25z m38 5 c0 -5 -4 -10 -10 -10 -5 0 -10 5 -10 10 0 6 5 10 10 10 6 0 10 -4
10 -10z m-63 -22 c-3 -8 -6 -5 -6 6 -1 11 2 17 5 13 3 -3 4 -12 1 -19z m1024
-230 c5 -10 7 -18 5 -18 -10 0 -56 51 -56 62 0 13 38 -20 51 -44z m-1166 -4
c1 -13 -3 -24 -7 -24 -4 0 -8 14 -8 32 0 36 15 29 15 -8z m1102 -146 c-3 -8
-6 -5 -6 6 -1 11 2 17 5 13 3 -3 4 -12 1 -19z m-799 -138 l23 -34 -22 -8 c-27
-10 -26 -12 -38 40 -11 52 3 52 37 2z m-150 -106 c-2 -8 -8 -10 -15 -6 -8 5
-10 21 -6 47 l7 40 8 -33 c5 -19 8 -40 6 -48z m-178 18 c-7 -3 -16 2 -21 9
-16 25 -9 32 12 13 13 -12 16 -20 9 -22z m230 0 c0 -7 -4 -10 -10 -7 -5 3 -10
16 -10 28 0 18 2 19 10 7 5 -8 10 -21 10 -28z m726 -77 c-1 -26 -10 -32 -21
-15 -4 6 -1 17 5 25 17 20 18 19 16 -10z m-652 -121 c3 -8 2 -12 -4 -9 -6 3
-10 10 -10 16 0 14 7 11 14 -7z m1109 -261 c-7 -2 -19 -2 -25 0 -7 3 -2 5 12
5 14 0 19 -2 13 -5z m12 -153 c3 -5 1 -10 -4 -10 -6 0 -11 5 -11 10 0 6 2 10
4 10 3 0 8 -4 11 -10z m61 -95 c5 0 33 -20 62 -45 l51 -45 -45 3 c-40 4 -47 8
-69 46 -23 39 -35 75 -17 51 4 -5 12 -10 18 -10z m144 -24 c9 -12 19 -18 22
-16 2 3 5 -2 5 -10 0 -24 -21 -17 -57 20 -30 31 -31 34 -11 30 13 -2 31 -13
41 -24z m-490 -73 c0 -22 -10 -48 -20 -48 -4 0 -5 12 -2 28 5 31 -13 20 -21
-13 -3 -13 -5 -8 -6 13 0 18 4 42 10 53 10 20 11 20 24 2 8 -10 15 -26 15 -35z
m-82 -227 c-14 -5 -31 15 -23 29 5 8 11 6 20 -7 9 -11 10 -19 3 -22z"/>
<path d="M5113 5799 c-36 -23 -41 -40 -19 -58 10 -8 21 -8 41 -1 22 9 26 15
21 35 -7 29 1 31 33 9 17 -12 26 -13 34 -5 16 16 -2 31 -44 37 -24 3 -43 -1
-66 -17z"/>
<path d="M4775 5656 c-29 -13 -55 -51 -55 -81 0 -16 9 -18 35 -9 12 5 13 9 4
14 -7 5 -9 16 -5 26 6 16 7 16 20 -2 12 -16 17 -17 41 -6 22 10 26 17 21 37
-7 27 3 31 35 15 11 -6 19 -7 19 -1 0 23 -68 28 -115 7z"/>
<path d="M5120 5504 c0 -8 5 -12 10 -9 6 3 10 10 10 16 0 5 -4 9 -10 9 -5 0
-10 -7 -10 -16z"/>
<path d="M5030 5475 c0 -17 2 -18 24 -9 18 7 12 24 -10 24 -8 0 -14 -7 -14
-15z"/>
<path d="M5127 5383 c-9 -2 -15 -9 -12 -14 4 -5 1 -9 -6 -9 -7 0 -9 -3 -6 -6
4 -4 -6 -18 -21 -30 -22 -19 -24 -24 -9 -24 10 0 20 7 23 15 4 9 13 13 23 10
11 -3 27 5 41 20 l23 25 -22 0 c-12 0 -19 4 -16 10 3 6 5 9 3 9 -2 -1 -11 -3
-21 -6z"/>
<path d="M5210 5290 c0 -5 -3 -9 -7 -8 -5 1 -21 -5 -36 -12 -23 -11 -32 -12
-49 -1 -26 16 -39 3 -14 -15 27 -19 45 -18 84 6 27 17 43 40 27 40 -3 0 -5 -4
-5 -10z"/>
<path d="M8842 6097 c-61 -19 -126 -89 -176 -190 -59 -119 -82 -225 -66 -302
6 -30 11 -79 11 -109 0 -44 -4 -58 -26 -82 -15 -16 -22 -30 -16 -32 6 -2 11
-8 11 -13 0 -22 59 -58 113 -70 31 -6 57 -16 57 -21 0 -5 15 -15 34 -23 19 -8
37 -19 41 -25 11 -18 23 -11 30 19 10 48 33 47 81 -3 27 -28 57 -49 82 -56 35
-9 41 -15 46 -45 4 -20 4 -40 1 -45 -3 -6 5 -10 19 -10 13 0 31 -3 40 -6 16
-6 20 4 31 84 5 41 4 44 -25 55 -16 6 -30 14 -30 17 0 10 91 62 97 56 4 -3 15
1 25 11 11 10 18 12 18 4 0 -15 102 -12 112 3 14 20 8 43 -17 72 -30 35 -32
81 -9 181 11 47 15 94 11 151 -4 70 -11 95 -45 167 -49 101 -106 166 -176 199
-43 21 -65 24 -146 24 -52 -1 -110 -6 -128 -11z m226 -319 c7 -10 20 -18 28
-18 8 0 14 -5 14 -11 0 -6 -9 -8 -20 -4 -32 10 -72 -21 -68 -52 2 -22 13 -30
62 -48 75 -28 83 -42 61 -108 -17 -53 -23 -73 -24 -93 -1 -6 -14 -26 -31 -44
-16 -18 -30 -42 -30 -52 0 -12 -13 -24 -35 -34 -96 -40 -180 8 -250 145 -27
54 -26 174 4 238 33 71 95 101 206 100 56 0 73 -4 83 -19z m55 -75 c-7 -2 -21
-2 -30 0 -10 3 -4 5 12 5 17 0 24 -2 18 -5z"/>
<path d="M8890 5740 c-12 -8 -12 -10 3 -16 24 -9 11 -24 -23 -24 -15 0 -37 -3
-47 -7 -14 -6 -10 -9 17 -13 20 -3 34 -11 33 -18 -2 -7 8 -12 21 -12 27 0 58
34 50 55 -3 7 0 16 5 20 6 3 9 11 6 16 -8 12 -46 11 -65 -1z"/>
<path d="M8947 5529 c23 -23 103 -30 103 -9 0 14 -31 20 -51 10 -13 -7 -19 -7
-19 0 0 5 -10 10 -22 10 -16 0 -19 -3 -11 -11z"/>
<path d="M8888 5473 c7 -3 16 -2 19 1 4 3 -2 6 -13 5 -11 0 -14 -3 -6 -6z"/>
<path d="M8980 5470 l-25 -6 22 -12 c27 -15 90 -16 98 -1 4 6 5 12 4 13 -10 8
-77 12 -99 6z"/>
<path d="M7360 5690 c0 -5 5 -10 10 -10 6 0 10 5 10 10 0 6 -4 10 -10 10 -5 0
-10 -4 -10 -10z"/>
<path d="M7300 5620 c-25 -23 -56 -45 -69 -51 l-23 -9 37 -30 c48 -38 64 -38
100 5 23 26 38 35 63 35 31 0 32 2 32 40 0 39 -1 40 -34 40 -19 0 -40 2 -48 5
-7 3 -34 -13 -58 -35z"/>
<path d="M7279 5314 c-70 -21 -71 -22 -59 -44 6 -11 21 -20 33 -20 13 0 28 -5
35 -12 8 -8 12 -8 12 -1 0 6 -7 13 -15 17 -17 6 -21 46 -5 46 6 0 10 -7 10
-15 0 -8 9 -15 19 -15 10 0 21 7 25 15 8 22 37 18 43 -5 3 -12 14 -20 25 -20
13 0 18 5 15 14 -3 8 1 20 9 26 8 7 14 16 14 20 0 12 -115 7 -161 -6z"/>
<path d="M2635 5251 l-30 -6 25 -18 c19 -13 21 -17 7 -17 -10 0 -33 6 -52 14
-29 12 -42 12 -87 1 -77 -19 -206 -29 -221 -16 -9 7 -21 3 -42 -14 -28 -23
-29 -24 -8 -25 12 0 24 -4 28 -10 3 -5 12 -7 20 -3 8 3 23 2 33 -3 9 -4 20 -8
24 -8 3 -1 10 -4 14 -8 11 -12 168 -8 259 5 58 9 79 16 77 26 -2 9 3 11 15 6
36 -15 69 -22 93 -20 56 4 130 18 130 25 0 11 -80 42 -115 44 -16 1 -43 8 -58
14 -35 15 -47 15 -47 1 0 -6 -7 -3 -16 5 -8 9 -16 15 -17 15 -1 -1 -15 -4 -32
-8z m122 -37 c-3 -3 -12 -4 -19 -1 -8 3 -5 6 6 6 11 1 17 -2 13 -5z m33 -14
c0 -5 -4 -10 -10 -10 -5 0 -10 5 -10 10 0 6 5 10 10 10 6 0 10 -4 10 -10z"/>
<path d="M56 5225 c4 -8 11 -15 16 -15 6 0 5 6 -2 15 -7 8 -14 15 -16 15 -2 0
-1 -7 2 -15z"/>
<path d="M69 5181 c25 -16 4 -41 -34 -41 l-35 0 0 -114 c0 -126 6 -137 57
-111 15 8 35 15 44 15 8 0 24 7 35 15 10 8 30 15 43 15 13 0 29 7 35 15 18 25
199 32 265 10 28 -9 56 -15 63 -13 19 7 -73 65 -122 78 -24 7 -53 18 -64 26
-11 8 -30 14 -43 14 -12 0 -24 4 -28 10 -3 5 -12 7 -19 4 -9 -3 -19 7 -27 26
-13 29 -17 31 -65 29 -34 -2 -58 3 -75 14 -13 9 -28 17 -34 17 -5 0 -4 -4 4
-9z"/>
<path d="M8981 5104 c-33 -31 -61 -61 -61 -66 0 -6 7 -5 15 2 8 7 22 10 30 6
19 -7 47 3 39 15 -9 15 16 38 34 33 14 -5 13 -3 -2 10 -19 15 -19 16 -1 36 34
38 7 20 -54 -36z"/>
<path d="M7511 5104 c-12 -15 -21 -33 -21 -41 0 -10 -6 -12 -21 -8 -13 5 -19
3 -15 -3 3 -5 -1 -12 -8 -15 -8 -3 -17 -1 -19 6 -2 8 -15 2 -32 -15 -15 -16
-23 -28 -17 -28 9 0 21 -32 27 -75 5 -32 24 -75 33 -75 5 0 28 6 50 14 65 23
77 41 79 124 2 45 -1 71 -7 67 -6 -3 -7 1 -4 10 8 19 -3 65 -15 65 -5 0 -19
-12 -30 -26z m-10 -97 c-10 -9 -11 -8 -5 6 3 10 9 15 12 12 3 -3 0 -11 -7 -18z
m-18 -73 c-3 -8 -9 -11 -15 -8 -5 3 -7 13 -3 23 5 12 3 13 -6 4 -6 -6 -18 -9
-26 -6 -11 4 -11 9 4 23 17 16 19 16 35 -2 9 -11 14 -26 11 -34z m57 -3 c0 -4
-7 -8 -15 -8 -16 0 -20 9 -9 20 8 8 24 -1 24 -12z"/>
<path d="M9156 5084 c-3 -9 -6 -22 -6 -29 0 -17 43 -44 77 -49 16 -2 42 -11
58 -20 45 -24 59 -21 39 10 -9 14 -30 28 -46 31 -17 3 -40 20 -55 39 -27 36
-57 44 -67 18z"/>
<path d="M1906 4944 c-9 -23 -7 -34 4 -34 6 0 33 -17 61 -37 46 -35 50 -41 45
-71 -5 -33 10 -92 24 -92 14 0 17 34 6 85 -13 59 -25 77 -87 127 -38 31 -48
35 -53 22z"/>
<path d="M2584 4940 c-22 -5 -58 -16 -79 -24 -20 -9 -46 -16 -56 -16 -11 0
-27 -9 -36 -20 -19 -22 -53 -27 -53 -8 0 9 -3 9 -11 1 -6 -6 -8 -21 -4 -33 5
-17 13 -21 31 -17 20 3 24 0 24 -19 0 -31 6 -33 80 -23 89 12 110 18 110 30 0
7 -20 10 -55 7 -30 -1 -55 1 -55 5 0 21 115 100 124 85 1 -2 9 -20 18 -40 16
-35 16 -38 0 -48 -14 -8 -13 -10 9 -7 14 1 37 10 50 18 26 18 146 42 161 33 5
-3 15 0 23 6 8 7 22 10 30 6 8 -3 15 -1 15 4 0 5 9 12 21 15 26 9 13 24 -27
31 -16 2 -53 9 -83 14 -64 12 -178 11 -237 0z m113 -26 c-3 -3 -12 -4 -19 -1
-8 3 -5 6 6 6 11 1 17 -2 13 -5z"/>
<path d="M7731 4846 c-6 -7 -18 -37 -27 -65 -8 -29 -24 -61 -35 -72 -16 -16
-20 -31 -17 -66 4 -63 -18 -70 -27 -8 -4 25 -10 47 -14 49 -4 3 -27 -5 -53
-16 l-46 -20 13 -49 c8 -29 9 -51 4 -55 -17 -10 31 -64 56 -64 31 0 154 45
171 62 12 12 11 14 -7 15 -28 2 -30 5 -34 47 -4 42 2 44 40 14 l28 -22 -7 30
c-4 16 -12 49 -18 74 -13 52 -14 105 -3 138 8 25 -6 30 -24 8z"/>
<path d="M7820 4791 c0 -10 31 -31 45 -31 11 0 -5 20 -26 30 -12 7 -19 7 -19
1z"/>
<path d="M1603 4758 c-25 -12 -39 -38 -20 -38 7 1 26 12 42 25 31 26 19 33
-22 13z"/>
<path d="M1745 4760 c-65 -14 -128 -39 -152 -62 -37 -34 -31 -72 27 -178 19
-35 26 -28 21 22 -2 18 36 33 104 42 22 3 41 5 43 6 1 0 2 4 2 9 0 5 -22 8
-48 8 -55 -2 -82 14 -82 49 0 23 33 54 57 54 8 0 18 -11 22 -24 14 -36 54 -73
76 -71 11 1 32 7 47 13 15 6 35 9 44 5 14 -5 14 -3 3 15 -11 17 -10 23 1 37
13 16 15 16 31 -4 20 -25 52 -28 47 -5 -4 20 -71 58 -139 78 -29 9 -55 16 -58
15 -3 -1 -24 -5 -46 -9z m95 -40 c0 -5 -7 -10 -15 -10 -8 0 -15 5 -15 10 0 6
7 10 15 10 8 0 15 -4 15 -10z"/>
<path d="M8352 4744 c-13 -9 -22 -26 -22 -42 0 -44 -13 -56 -35 -32 -21 24
-35 26 -35 5 0 -8 -4 -15 -10 -15 -5 0 -8 -10 -6 -22 7 -52 106 -22 106 32 0
11 7 36 14 55 8 19 14 35 13 35 -2 0 -13 -7 -25 -16z"/>
<path d="M7805 4717 c-4 -10 -5 -21 -1 -24 10 -10 18 4 13 24 -4 17 -4 17 -12
0z"/>
<path d="M7880 4722 c0 -12 19 -26 26 -19 2 2 -2 10 -11 17 -9 8 -15 8 -15 2z"/>
<path d="M974 4657 c-39 -30 -69 -106 -53 -132 3 -5 9 -22 13 -37 3 -16 12
-28 20 -28 18 0 156 144 156 164 0 18 -30 36 -77 47 -26 5 -39 2 -59 -14z"/>
<path d="M7470 4619 c0 -5 5 -7 10 -4 6 3 10 8 10 11 0 2 -4 4 -10 4 -5 0 -10
-5 -10 -11z"/>
<path d="M7492 4580 c7 -10 14 -18 15 -16 6 6 -9 36 -18 36 -5 0 -4 -9 3 -20z"/>
<path d="M8054 4548 c-3 -5 -21 -8 -40 -8 -29 0 -34 -4 -34 -22 0 -44 -35 -68
-99 -68 -23 0 -41 -4 -41 -10 0 -5 8 -10 18 -10 47 0 252 22 285 31 37 10 38
12 32 42 -4 18 -10 35 -14 39 -9 9 -102 15 -107 6z"/>
<path d="M3600 4488 c0 -16 5 -28 10 -28 7 0 7 -7 0 -20 -10 -19 -10 -20 9 -8
26 16 26 29 1 59 l-19 24 -1 -27z"/>
<path d="M1209 4453 c-3 -36 -13 -53 -48 -83 -51 -45 -81 -104 -74 -147 6 -35
29 -45 40 -18 3 9 23 25 44 36 41 21 50 47 24 69 -23 19 -18 39 13 51 19 8 32
7 45 -1 20 -12 47 2 47 24 0 28 -88 94 -91 69z"/>
<path d="M9470 4450 c0 -5 6 -10 13 -10 9 0 12 -10 9 -30 -2 -16 0 -30 4 -30
11 0 11 51 1 68 -10 14 -27 16 -27 2z"/>
<path d="M4923 4429 c4 -13 7 -27 7 -31 0 -5 4 -8 9 -8 15 0 9 35 -8 50 -12
12 -13 11 -8 -11z"/>
<path d="M6265 4430 c-4 -6 5 -9 19 -8 15 1 26 6 26 10 0 12 -38 10 -45 -2z"/>
<path d="M5051 4394 c0 -11 3 -14 6 -6 3 7 2 16 -1 19 -3 4 -6 -2 -5 -13z"/>
<path d="M4000 4360 c-20 -12 -4 -17 77 -24 34 -3 98 -19 143 -35 56 -21 80
-26 80 -17 0 22 -33 43 -99 65 -67 22 -175 28 -201 11z"/>
<path d="M6200 4350 c0 -5 5 -10 11 -10 5 0 7 5 4 10 -3 6 -8 10 -11 10 -2 0
-4 -4 -4 -10z"/>
<path d="M1281 4326 c-13 -16 2 -32 19 -21 6 4 18 1 27 -7 13 -10 12 -6 -2 14
-23 32 -28 33 -44 14z"/>
<path d="M6312 4295 c0 -16 2 -22 5 -12 2 9 2 23 0 30 -3 6 -5 -1 -5 -18z"/>
<path d="M4967 4304 c-10 -10 26 -74 42 -74 10 0 12 3 5 8 -17 11 -36 51 -29
62 7 11 -8 14 -18 4z"/>
<path d="M5813 4290 c-25 -10 -32 -23 -8 -14 9 4 15 0 15 -8 0 -8 9 -23 19
-32 18 -17 20 -17 40 3 12 12 21 26 21 31 0 6 7 6 19 -1 10 -7 27 -9 37 -5 17
7 17 9 -6 18 -37 14 -112 19 -137 8z"/>
<path d="M440 4248 c-20 -12 -30 -23 -22 -25 6 -3 26 7 43 21 37 32 27 34 -21
4z"/>
<path d="M1343 4264 c-6 -3 -24 -21 -39 -41 l-27 -35 34 7 c45 9 66 29 51 48
-7 8 -9 17 -5 20 7 8 4 8 -14 1z"/>
<path d="M3601 4223 c7 -10 15 -20 16 -22 2 -2 3 3 3 11 0 9 -7 19 -16 22 -15
6 -15 4 -3 -11z"/>
<path d="M3977 4223 c-4 -3 3 -17 14 -30 21 -21 23 -21 35 -5 13 16 13 16 14
-1 0 -25 45 -44 65 -27 8 7 15 19 15 26 0 23 17 16 40 -16 l21 -30 -22 0 c-12
0 -20 -3 -16 -6 3 -4 18 -4 32 0 27 7 34 36 12 54 -32 27 -192 53 -210 35z"/>
<path d="M360 4196 c-14 -8 -35 -32 -48 -54 -20 -37 -21 -40 -5 -46 10 -4 22
-1 28 7 5 8 27 20 49 27 21 7 41 20 43 30 3 10 11 21 19 24 8 3 14 10 14 16 0
15 -71 12 -100 -4z"/>
<path d="M6284 4157 c-10 -34 -44 -48 -68 -28 -19 16 -26 3 -26 -50 0 -26 -5
-60 -12 -76 -6 -15 -12 -43 -14 -61 -2 -19 -7 -39 -13 -45 -8 -11 -20 -59 -38
-152 -3 -16 -10 -36 -15 -42 -7 -9 -7 -13 0 -13 6 0 19 12 30 27 23 32 37 25
63 -31 24 -53 24 -39 -1 54 -11 41 -22 85 -24 98 -4 25 29 73 47 71 31 -4 37
3 37 42 0 23 7 47 16 56 14 14 17 13 39 -7 22 -21 25 -21 31 -6 11 30 -3 130
-23 163 l-19 32 -10 -32z"/>
<path d="M2192 4147 c-21 -23 -30 -57 -14 -57 4 0 18 7 31 16 22 16 80 15 124
-2 13 -4 17 -1 17 15 0 49 -119 70 -158 28z"/>
<path d="M1563 4126 c27 -40 68 -149 77 -201 5 -27 14 -70 20 -95 10 -39 9
-46 -6 -57 -10 -7 -25 -13 -35 -13 -9 0 -22 -7 -29 -15 -8 -9 -22 -12 -42 -8
-31 6 -31 6 -12 -15 28 -31 37 -43 62 -90 23 -41 24 -80 2 -67 -5 3 -10 0 -10
-7 0 -10 -3 -9 -10 2 -6 9 -5 17 1 21 6 3 -1 9 -15 11 -14 3 -26 2 -26 -2 0
-11 -116 -130 -127 -130 -8 0 -106 -75 -155 -119 -15 -13 -25 -28 -22 -33 10
-15 23 -8 36 19 8 16 25 31 44 36 18 5 37 20 42 32 7 14 23 26 42 30 18 4 48
18 68 31 51 35 83 41 96 20 6 -10 19 -27 28 -38 14 -17 15 -24 6 -35 -7 -9 -8
-17 -2 -21 13 -10 18 -31 19 -73 0 -43 25 -43 26 0 0 14 4 35 8 46 4 10 3 37
-2 58 -6 25 -6 45 0 60 10 21 11 20 21 -13 9 -31 10 -32 11 -9 1 15 -6 46 -15
70 -17 47 -19 164 -4 202 l9 22 0 -23 c1 -13 5 -21 11 -17 5 3 16 -8 25 -26 9
-17 18 -29 21 -27 2 2 -1 42 -6 89 -5 46 -10 105 -10 130 0 41 -40 153 -60
169 -3 3 -21 26 -39 52 -36 50 -78 81 -48 34z"/>
<path d="M4420 4130 c-14 -26 -12 -50 1 -27 10 18 12 18 26 -2 17 -25 45 -27
63 -6 7 8 19 15 26 15 22 0 16 -30 -7 -38 -20 -8 -19 -8 6 -22 28 -15 50 -8
69 23 17 27 -11 44 -97 60 -73 14 -78 14 -87 -3z"/>
<path d="M3600 4117 c0 -19 -4 -25 -15 -21 -26 10 -17 -12 25 -62 23 -27 70
-109 107 -183 36 -73 80 -152 97 -175 17 -22 49 -67 71 -99 45 -67 85 -110 94
-101 3 3 -8 18 -24 33 -32 30 -40 41 -81 114 -15 26 -30 47 -35 47 -4 0 -10 7
-13 16 -3 8 -2 12 4 9 6 -3 10 -1 10 4 0 6 -4 11 -10 11 -5 0 -10 7 -10 16 0
8 -4 13 -9 9 -15 -8 -78 125 -90 190 -14 73 -14 155 -1 155 5 0 7 7 3 16 -6
15 -7 15 -19 0 -10 -15 -16 -16 -36 -6 -13 7 -33 22 -45 33 l-23 20 0 -26z"/>
<path d="M2427 4110 c-14 -11 -32 -20 -41 -20 -9 0 -16 -4 -16 -10 0 -5 7 -10
15 -10 26 0 75 30 75 45 0 19 -2 19 -33 -5z"/>
<path d="M1984 4109 c-4 -7 0 -16 9 -20 14 -8 14 -13 2 -37 -13 -24 -13 -29 5
-46 10 -11 27 -20 37 -21 10 0 24 -4 31 -9 17 -10 42 11 42 35 0 11 6 19 14
19 7 0 19 7 26 15 7 8 19 14 28 13 8 -2 17 2 19 7 2 7 -20 12 -54 13 -32 1
-76 11 -99 22 -47 23 -51 24 -60 9z m43 -55 c-3 -3 -12 -4 -19 -1 -8 3 -5 6 6
6 11 1 17 -2 13 -5z"/>
<path d="M183 4065 c-12 -8 -32 -36 -44 -61 -20 -39 -21 -47 -9 -54 13 -8 13
-10 1 -10 -8 0 -12 -3 -9 -6 11 -10 47 16 47 34 0 14 3 35 11 62 1 3 5 -5 10
-17 13 -32 30 -28 32 7 0 17 1 35 2 42 2 18 -17 20 -41 3z"/>
<path d="M9357 4069 c7 -7 15 -10 18 -7 3 3 -2 9 -12 12 -14 6 -15 5 -6 -5z"/>
<path d="M633 3995 c-59 -22 -160 -82 -194 -115 -15 -14 -77 -100 -94 -129
-11 -19 54 -4 80 19 11 9 47 32 80 50 86 48 85 47 73 81 -6 17 -8 32 -6 34 3
3 26 8 53 12 38 5 46 3 40 -7 -6 -10 -2 -11 18 -6 82 20 103 42 58 59 -17 6
-31 15 -31 19 0 11 -6 10 -77 -17z m-118 -115 c3 -6 -4 -10 -17 -10 -18 0 -20
2 -8 10 19 12 18 12 25 0z"/>
<path d="M5601 3984 c0 -11 3 -14 6 -6 3 7 2 16 -1 19 -3 4 -6 -2 -5 -13z"/>
<path d="M9370 3969 c0 -5 5 -7 10 -4 6 3 10 8 10 11 0 2 -4 4 -10 4 -5 0 -10
-5 -10 -11z"/>
<path d="M8392 3944 c-17 -11 -22 -25 -22 -57 0 -23 4 -37 8 -31 12 12 44 95
39 100 -2 2 -13 -3 -25 -12z"/>
<path d="M5130 3946 c0 -3 9 -10 20 -16 11 -6 20 -8 20 -6 0 3 -9 10 -20 16
-11 6 -20 8 -20 6z"/>
<path d="M5768 3933 c7 -3 16 -2 19 1 4 3 -2 6 -13 5 -11 0 -14 -3 -6 -6z"/>
<path d="M9340 3931 c0 -6 4 -13 10 -16 6 -3 7 1 4 9 -7 18 -14 21 -14 7z"/>
<path d="M9370 3930 c0 -6 7 -10 15 -10 8 0 15 2 15 4 0 2 -7 6 -15 10 -8 3
-15 1 -15 -4z"/>
<path d="M5590 3912 c0 -14 22 -30 45 -32 58 -6 73 9 28 29 -21 9 -28 9 -34 0
-6 -10 -11 -10 -23 0 -9 8 -16 9 -16 3z"/>
<path d="M4573 3873 c-7 -15 -13 -36 -13 -46 0 -12 -5 -17 -14 -14 -8 3 -17
-1 -20 -9 -9 -24 -8 -24 24 -6 23 14 28 22 23 41 -4 15 -2 22 4 18 6 -4 14 0
17 9 16 41 -3 47 -21 7z"/>
<path d="M5370 3850 c-7 -14 -7 -20 0 -20 5 0 10 -7 10 -15 0 -8 7 -15 15 -15
15 0 17 -5 19 -45 1 -13 8 -20 21 -20 13 0 21 -8 23 -22 2 -13 -2 -23 -8 -23
-7 0 -10 -7 -7 -15 4 -8 2 -17 -3 -20 -13 -8 -13 -42 1 -51 7 -4 9 2 7 17 -2
20 2 25 24 27 22 3 29 -2 34 -23 4 -15 2 -36 -2 -48 -5 -12 -8 -35 -6 -50 3
-23 6 -26 18 -16 12 10 13 9 8 -5 -3 -9 -1 -16 5 -16 8 0 10 14 7 45 -4 27 -1
47 6 51 7 4 8 3 4 -4 -5 -8 2 -12 18 -12 30 0 29 0 16 -35 -11 -28 -20 -42
-62 -87 -16 -16 -28 -31 -28 -33 0 -9 36 10 47 24 11 14 12 13 13 -6 0 -13 -4
-23 -10 -23 -11 0 -13 -30 -4 -54 3 -9 11 -16 16 -16 10 0 66 36 128 81 22 17
51 25 98 29 60 6 149 36 138 47 -2 2 -18 -3 -35 -11 -72 -38 -185 1 -228 78
-6 11 -15 20 -19 18 -5 -2 -10 2 -13 9 -2 8 1 9 10 3 12 -7 12 -5 0 9 -7 10
-20 16 -29 15 -8 -2 -17 3 -20 11 -3 10 0 11 9 5 12 -6 12 -5 0 10 -8 9 -19
15 -26 13 -10 -4 -30 16 -90 88 -11 13 -33 47 -50 74 -16 28 -33 51 -37 51 -4
0 -12 -9 -18 -20z m217 -395 c-2 -31 -3 -32 -19 -18 -21 19 -23 34 -6 51 18
18 28 4 25 -33z"/>
<path d="M4145 3840 c3 -5 17 -10 29 -10 13 0 35 -9 50 -21 30 -24 35 -8 6 21
-21 21 -97 30 -85 10z"/>
<path d="M5803 3823 c-7 -2 -13 -11 -13 -19 0 -8 -7 -14 -16 -14 -8 0 -12 4
-9 10 3 6 -1 7 -9 4 -9 -3 -13 -10 -10 -15 3 -5 -2 -9 -10 -9 -9 0 -15 6 -13
13 4 20 -79 14 -103 -8 l-20 -18 21 -24 c12 -12 30 -25 40 -28 16 -5 17 -9 6
-26 -10 -16 -8 -22 13 -42 16 -14 40 -23 65 -25 28 -2 36 0 26 7 -8 5 -19 7
-25 5 -6 -2 -17 5 -24 17 -12 18 -12 23 0 30 7 5 20 6 29 4 9 -3 22 1 29 10 7
8 18 15 25 15 15 0 105 83 105 97 0 18 -74 30 -107 16z m27 -67 c0 -3 -4 -8
-10 -11 -5 -3 -10 -1 -10 4 0 6 5 11 10 11 6 0 10 -2 10 -4z m-55 -22 c13 -5
14 -8 3 -15 -7 -5 -22 -8 -33 -8 -13 0 -15 3 -6 6 11 5 11 7 0 14 -11 7 -11 9
3 9 9 0 24 -3 33 -6z"/>
<path d="M4320 3810 c-8 -5 -25 -10 -37 -10 -30 0 -29 -18 2 -32 21 -9 27 -8
44 13 30 36 25 51 -9 29z"/>
<path d="M1440 3792 c0 -23 -37 -92 -62 -116 -33 -31 -10 -31 35 1 59 43 88
133 42 133 -8 0 -15 -8 -15 -18z"/>
<path d="M2135 3790 c-3 -5 0 -10 7 -10 10 0 9 -3 -2 -11 -12 -9 -11 -10 7 -6
12 3 24 0 26 -6 2 -8 10 -6 21 6 13 12 14 17 4 19 -7 0 -17 2 -23 2 -5 1 -15
5 -22 9 -6 4 -14 3 -18 -3z"/>
<path d="M6650 3771 c-8 -4 -40 -14 -70 -21 -76 -17 -127 -49 -182 -113 -44
-51 -48 -60 -48 -109 0 -29 -4 -59 -8 -65 -12 -20 -66 42 -98 112 -15 33 -29
55 -31 49 -6 -17 35 -118 56 -141 11 -12 17 -24 14 -27 -4 -3 -2 -6 3 -6 5 0
10 -9 10 -19 0 -30 -255 -147 -481 -221 -38 -12 -90 -35 -115 -49 l-45 -26 73
-5 73 -5 -21 -40 c-27 -52 -25 -59 10 -52 33 7 104 -15 132 -40 31 -28 32 -6
1 49 -50 90 -54 88 193 88 l214 0 1 68 c0 67 17 138 18 81 1 -14 10 -34 21
-44 15 -14 19 -26 14 -50 -7 -38 13 -63 57 -72 16 -3 30 -11 31 -17 1 -6 4 18
7 54 6 64 6 65 35 64 17 0 38 8 48 18 18 18 78 25 78 9 0 -5 -22 -17 -50 -26
-27 -9 -50 -21 -50 -25 0 -12 82 -9 98 3 8 7 12 4 12 -7 0 -13 6 -10 24 11 15
17 20 30 14 34 -7 4 -6 8 1 10 19 7 1 39 -25 45 -28 7 -29 15 -8 55 8 17 15
45 14 62 -3 52 -1 57 25 57 27 0 45 -25 45 -65 0 -14 7 -40 16 -57 9 -17 14
-39 11 -49 -3 -11 -1 -22 4 -25 5 -3 7 -10 3 -15 -17 -27 52 -43 91 -21 5 3
21 6 35 6 16 1 26 8 28 19 3 17 -2 19 -40 15 -41 -3 -48 0 -48 22 0 13 57 13
65 1 3 -5 21 -8 39 -6 41 4 46 -5 55 -94 3 -36 11 -66 17 -68 6 -2 11 3 11 12
0 8 -4 15 -9 15 -5 0 -2 7 6 16 9 8 20 13 26 9 12 -8 24 39 23 90 -3 73 -3 80
3 136 7 66 -22 176 -58 225 -39 53 -115 111 -165 127 -60 19 -183 30 -203 18z
m179 -416 c14 -8 4 -25 -15 -25 -10 0 -14 11 -13 38 0 31 2 33 9 16 5 -12 13
-25 19 -29z m221 -85 c0 -5 -4 -10 -10 -10 -5 0 -10 5 -10 10 0 6 5 10 10 10
6 0 10 -4 10 -10z m-614 -115 c-21 -16 -32 -13 -21 4 3 6 14 11 23 11 15 -1
15 -2 -2 -15z"/>
<path d="M1560 3760 c-12 -8 -10 -10 8 -10 13 0 20 4 17 10 -7 12 -6 12 -25 0z"/>
<path d="M2340 3761 c0 -12 -64 -33 -98 -33 -13 0 -28 6 -33 13 -6 11 -11 10
-27 -4 -10 -9 -24 -17 -31 -17 -7 0 -11 -6 -8 -13 3 -8 1 -20 -3 -28 -7 -11
-10 -10 -16 4 -7 20 -24 23 -24 4 0 -7 -9 -18 -20 -25 -16 -10 -18 -16 -9 -34
14 -32 55 -50 70 -32 6 8 23 14 36 14 30 0 133 29 149 41 6 5 18 7 26 4 9 -4
18 1 21 9 5 12 0 16 -21 17 -15 0 -36 4 -47 8 -18 7 -17 10 14 25 39 21 86 14
77 -11 -4 -8 -1 -22 5 -29 9 -11 15 -11 38 0 15 8 68 19 119 25 51 5 97 13
103 16 17 11 -13 37 -37 32 -13 -2 -44 -1 -71 3 -32 5 -50 4 -55 -4 -5 -7 -8
-6 -8 4 -1 12 -3 12 -13 -2 -11 -14 -20 -15 -58 -7 -24 6 -52 15 -61 20 -11 6
-18 6 -18 0z m-83 -77 c-3 -3 -12 -4 -19 -1 -8 3 -5 6 6 6 11 1 17 -2 13 -5z"/>
<path d="M4497 3763 c-13 -12 -7 -21 17 -25 19 -4 22 -1 18 14 -4 18 -23 24
-35 11z"/>
<path d="M4250 3700 c-24 -24 -46 -26 -58 -4 -6 12 -23 14 -72 12 -103 -5 -89
-20 70 -79 19 -7 41 -17 48 -22 9 -7 11 -5 6 9 -5 14 -4 16 4 9 6 -6 9 -21 5
-34 -5 -19 -10 -22 -32 -16 -14 3 -38 9 -53 12 -15 3 -33 11 -39 19 -6 8 -18
14 -26 14 -8 0 -11 5 -7 12 4 7 3 8 -4 4 -7 -4 -12 -15 -12 -25 0 -39 175 -87
205 -56 22 24 36 57 30 75 -4 12 2 26 17 40 23 21 23 22 4 36 -28 20 -63 17
-86 -6z"/>
<path d="M1266 3700 c-35 -11 -96 -68 -96 -89 0 -10 3 -12 8 -6 21 31 102 85
126 85 14 0 26 5 26 10 0 12 -24 12 -64 0z"/>
<path d="M4446 3688 c-16 -25 -16 -29 -3 -43 9 -8 19 -24 22 -35 4 -11 11 -18
16 -14 5 3 7 10 3 15 -3 6 -9 31 -13 57 l-7 47 -18 -27z"/>
<path d="M3300 3671 c0 -30 66 -93 160 -153 l101 -63 -7 -35 -6 -35 22 20 c19
18 23 18 31 4 5 -11 17 -15 34 -12 22 5 28 -1 54 -61 30 -65 105 -184 125
-198 6 -4 20 -8 32 -8 18 0 22 8 28 53 3 28 6 69 6 90 0 42 0 42 41 22 38 -20
50 -53 42 -112 -7 -53 -6 -53 70 10 48 40 60 67 30 67 -52 0 -420 166 -540
243 -67 43 -199 148 -215 171 -5 7 -8 6 -8 -3z"/>
<path d="M9395 3633 c2 -15 6 -37 11 -47 5 -14 4 -17 -4 -12 -8 5 -10 2 -5 -9
3 -10 8 -12 12 -7 3 6 11 0 18 -14 6 -14 7 -21 1 -18 -6 4 -8 -2 -3 -16 5 -15
4 -20 -4 -16 -16 10 -13 -1 6 -24 10 -11 24 -20 31 -20 9 0 5 8 -9 21 -23 19
-23 20 -3 14 20 -5 21 -3 10 29 -6 19 -14 32 -18 30 -10 -7 -10 10 0 20 4 4 7
21 7 37 0 22 -5 29 -20 30 l-20 0 20 9 c11 5 15 9 8 9 -6 1 -18 4 -26 7 -11 4
-14 -2 -12 -23z m35 -23 c0 -5 -4 -10 -9 -10 -6 0 -13 5 -16 10 -3 6 1 10 9
10 9 0 16 -4 16 -10z m10 -24 c0 -3 -4 -8 -10 -11 -5 -3 -10 -1 -10 4 0 6 5
11 10 11 6 0 10 -2 10 -4z"/>
<path d="M5800 3639 c0 -5 5 -7 10 -4 6 3 10 8 10 11 0 2 -4 4 -10 4 -5 0 -10
-5 -10 -11z"/>
<path d="M4369 3597 c-13 -12 -42 -43 -63 -67 -65 -74 -112 -102 -171 -99 -27
2 -66 9 -85 16 -56 20 -69 14 -20 -8 30 -14 73 -22 127 -25 81 -4 99 -10 166
-58 15 -10 33 -16 41 -13 18 7 40 81 26 85 -6 2 -10 11 -10 21 0 9 -5 22 -12
29 -9 9 -5 12 21 12 25 0 32 -4 27 -15 -8 -21 7 -19 21 4 10 16 8 22 -8 37
-17 15 -19 16 -19 1 0 -10 -4 -17 -10 -17 -16 0 -28 34 -19 55 4 11 8 16 8 12
1 -5 9 -1 18 9 13 13 14 19 5 22 -7 2 -10 8 -6 13 11 18 -13 9 -37 -14z m1
-164 c12 -14 14 -22 6 -40 -11 -22 -46 -33 -46 -14 0 5 -3 17 -7 27 -5 14 -3
16 11 11 14 -6 16 -3 11 13 -8 25 3 26 25 3z"/>
<path d="M4195 3600 c3 -5 8 -10 11 -10 2 0 4 5 4 10 0 6 -5 10 -11 10 -5 0
-7 -4 -4 -10z"/>
<path d="M4508 3593 c-15 -19 -16 -26 -4 -60 7 -23 36 -32 36 -12 0 5 -4 7
-10 4 -9 -5 -12 8 -9 31 0 4 -5 11 -13 15 -10 7 -9 9 3 9 9 0 19 7 23 15 7 20
-8 19 -26 -2z"/>
<path d="M5100 3590 c8 -5 20 -10 25 -10 6 0 3 5 -5 10 -8 5 -19 10 -25 10 -5
0 -3 -5 5 -10z"/>
<path d="M5308 3593 c6 -2 18 -2 25 0 6 3 1 5 -13 5 -14 0 -19 -2 -12 -5z"/>
<path d="M4768 3583 c7 -3 16 -2 19 1 4 3 -2 6 -13 5 -11 0 -14 -3 -6 -6z"/>
<path d="M4410 3562 c0 -5 11 -14 25 -20 26 -12 33 -4 13 16 -14 14 -38 16
-38 4z"/>
<path d="M4770 3560 c0 -5 5 -10 11 -10 5 0 7 5 4 10 -3 6 -8 10 -11 10 -2 0
-4 -4 -4 -10z"/>
<path d="M4985 3560 c-3 -5 1 -10 10 -10 9 0 13 5 10 10 -3 6 -8 10 -10 10 -2
0 -7 -4 -10 -10z"/>
<path d="M5233 3527 c4 -10 7 -22 7 -27 0 -14 52 -22 64 -9 8 9 8 10 -1 5 -6
-3 -14 -2 -18 3 -3 6 -13 7 -22 4 -10 -4 -14 -2 -10 4 4 6 -1 17 -10 24 -15
12 -16 12 -10 -4z"/>
<path d="M5360 3515 c0 -8 5 -15 10 -15 6 0 10 7 10 15 0 8 -4 15 -10 15 -5 0
-10 -7 -10 -15z"/>
<path d="M8894 3521 c4 -5 1 -12 -4 -14 -6 -3 -5 -4 2 -3 15 3 23 26 8 26 -6
0 -9 -4 -6 -9z"/>
<path d="M1739 3475 c-3 -42 -7 -49 -22 -47 -15 3 -17 -1 -13 -17 3 -12 9 -30
12 -41 3 -11 10 -20 15 -20 5 0 14 -10 19 -22 11 -30 12 99 1 157 l-8 40 -4
-50z"/>
<path d="M4630 3511 c0 -5 7 -11 15 -15 8 -3 15 -1 15 3 0 5 -7 11 -15 15 -8
3 -15 1 -15 -3z"/>
<path d="M5140 3490 c0 -5 5 -10 11 -10 5 0 7 -4 4 -10 -3 -5 1 -10 9 -10 22
0 20 17 -4 30 -14 7 -20 7 -20 0z"/>
<path d="M4703 3463 c4 -3 2 -12 -4 -20 -9 -10 -8 -13 5 -13 10 0 14 -4 11
-10 -3 -5 1 -10 10 -10 14 0 14 3 0 30 -9 17 -18 30 -22 30 -3 0 -3 -3 0 -7z"/>
<path d="M9490 3449 c0 -5 5 -7 10 -4 6 3 10 8 10 11 0 2 -4 4 -10 4 -5 0 -10
-5 -10 -11z"/>
<path d="M4430 3441 c10 -7 11 -11 3 -11 -7 0 -13 -7 -13 -15 0 -8 5 -15 10
-15 6 0 10 7 10 15 0 8 0 18 1 22 0 4 -5 9 -13 11 -9 2 -8 0 2 -7z"/>
<path d="M5505 3399 c-4 -6 -5 -12 -2 -15 2 -3 7 2 10 11 7 17 1 20 -8 4z"/>
<path d="M3282 3376 c-6 -15 -19 -29 -28 -33 -9 -3 -28 -17 -42 -30 -15 -14
-38 -35 -52 -47 -14 -13 -40 -32 -57 -42 -18 -10 -33 -22 -33 -26 0 -4 -37
-25 -82 -48 -46 -23 -90 -47 -98 -55 -8 -8 -26 -16 -40 -19 -14 -3 -43 -10
-65 -16 -86 -24 -108 -28 -119 -26 -6 2 -8 1 -3 -1 16 -9 6 -24 -12 -18 -11 3
-22 1 -26 -5 -5 -7 -11 -8 -19 -1 -6 6 -18 6 -25 2 -11 -7 -9 -10 6 -15 15 -5
26 -27 43 -84 12 -42 42 -142 67 -222 25 -80 54 -182 63 -228 10 -46 20 -86
24 -89 11 -11 55 19 49 33 -3 8 0 14 6 14 6 0 11 -5 11 -11 0 -5 4 -7 10 -4
15 9 -11 33 -31 28 -23 -6 -32 12 -19 36 7 13 7 22 0 26 -18 11 -10 25 15 25
14 0 30 -9 37 -20 7 -11 19 -20 27 -20 8 0 11 -3 8 -7 -4 -3 -2 -12 4 -20 9
-10 8 -13 -5 -13 -10 0 -15 -4 -12 -9 9 -14 82 15 201 81 146 79 168 98 160
130 -5 20 -12 25 -35 24 -15 -1 -26 -4 -23 -8 2 -5 -3 -8 -11 -8 -9 0 -15 6
-14 13 2 6 -5 11 -14 11 -10 -1 -18 5 -18 13 0 10 6 13 16 9 12 -5 14 -1 9 17
-12 38 -24 42 -47 17 -20 -21 -23 -22 -26 -7 -5 23 -33 21 -39 -3 -6 -24 -19
-26 -27 -4 -5 12 -14 15 -35 11 -20 -4 -31 -2 -35 8 -8 22 -66 20 -66 -2 0
-15 -1 -15 -18 0 -10 10 -24 17 -30 17 -20 0 -14 32 18 95 16 33 30 54 30 47
0 -8 6 -12 13 -9 6 2 11 14 9 25 -2 12 2 22 7 22 6 0 11 -7 11 -16 0 -9 8 -14
18 -13 47 4 71 -1 66 -16 -4 -8 -3 -15 1 -15 15 0 30 27 30 53 -1 18 3 26 12
23 6 -3 15 4 18 15 8 24 89 109 104 109 6 0 11 7 11 15 0 8 20 38 45 67 63 73
65 76 65 88 0 5 5 10 10 10 11 0 12 91 1 129 l-6 24 -13 -27z m-635 -398 c-3
-8 -6 -5 -6 6 -1 11 2 17 5 13 3 -3 4 -12 1 -19z m480 -260 c-3 -8 -6 -5 -6 6
-1 11 2 17 5 13 3 -3 4 -12 1 -19z m-52 -26 c-3 -3 -11 0 -18 7 -9 10 -8 11 6
5 10 -3 15 -9 12 -12z"/>
<path d="M5410 3386 c0 -2 7 -9 15 -16 13 -11 14 -10 9 4 -5 14 -24 23 -24 12z"/>
<path d="M4411 3354 c0 -11 3 -14 6 -6 3 7 2 16 -1 19 -3 4 -6 -2 -5 -13z"/>
<path d="M5017 3348 c-14 -15 -22 -17 -30 -9 -14 14 -47 14 -47 1 0 -5 9 -10
20 -10 11 0 20 -5 20 -10 0 -18 64 -6 77 15 16 27 16 31 -4 31 -10 1 -26 -8
-36 -18z"/>
<path d="M5477 3356 c-3 -8 -2 -18 3 -21 13 -8 24 15 12 27 -6 6 -11 4 -15 -6z"/>
<path d="M4870 3340 c0 -5 7 -10 15 -10 8 0 15 5 15 10 0 6 -7 10 -15 10 -8 0
-15 -4 -15 -10z"/>
<path d="M4453 3315 c-10 -22 -9 -24 5 -16 8 5 17 16 18 25 3 24 -10 19 -23
-9z"/>
<path d="M4516 3315 c-7 -8 -15 -13 -17 -12 -3 1 -2 -2 2 -6 5 -7 59 8 59 17
0 12 -31 13 -44 1z"/>
<path d="M4948 3303 c7 -3 16 -2 19 1 4 3 -2 6 -13 5 -11 0 -14 -3 -6 -6z"/>
<path d="M4701 3291 c-8 -6 -9 -11 -3 -15 6 -3 14 -1 17 5 9 14 2 20 -14 10z"/>
<path d="M1165 3271 c-6 -5 -37 -23 -70 -41 -78 -41 -83 -47 -63 -66 13 -13
27 -15 62 -10 51 8 53 10 31 32 -19 20 -5 49 29 58 13 3 26 13 30 21 6 17 -5
20 -19 6z"/>
<path d="M4375 3270 c-19 -8 -19 -9 3 -9 12 -1 22 4 22 9 0 6 -1 10 -2 9 -2 0
-12 -4 -23 -9z"/>
<path d="M9135 3254 c-72 -26 -168 -43 -305 -54 -74 -6 -175 -18 -225 -26 -49
-8 -104 -17 -122 -20 -29 -4 -51 -20 -41 -29 1 -2 27 3 56 10 94 25 166 29
203 12 19 -8 41 -18 49 -21 63 -26 109 -71 73 -71 -16 0 -19 -5 -27 -38 -7
-29 -7 -29 33 -22 24 4 41 2 46 -4 3 -6 0 -13 -7 -15 -61 -18 -108 -40 -105
-50 2 -6 -3 -17 -12 -24 -14 -12 -14 -13 2 -8 14 5 16 2 8 -13 -6 -10 -17 -21
-24 -24 -15 -6 -30 -47 -18 -47 4 0 5 -16 3 -35 -2 -19 -8 -35 -13 -35 -5 0
-9 5 -9 10 0 6 -6 10 -14 10 -9 0 -12 -8 -8 -25 2 -14 8 -25 13 -25 5 0 9 -7
9 -15 0 -8 5 -15 10 -15 6 0 10 -7 10 -15 0 -8 -8 -15 -17 -15 -14 0 -15 -2
-5 -9 14 -8 12 -28 -12 -104 -8 -26 -13 -54 -10 -62 4 -9 -1 -18 -12 -22 -34
-13 -45 -32 -43 -75 1 -24 -2 -52 -6 -62 -6 -15 -5 -18 6 -14 11 4 14 -5 15
-43 0 -26 -3 -46 -8 -43 -4 3 -8 -4 -8 -15 0 -20 -19 -27 -59 -21 -11 1 -12
-7 -8 -34 7 -41 32 -74 41 -53 4 6 4 -5 2 -26 -4 -31 -2 -38 9 -33 8 3 15 1
15 -5 0 -6 5 -7 10 -4 6 3 10 2 10 -3 0 -6 -7 -12 -15 -16 -23 -9 -18 -21 30
-71 25 -25 43 -50 40 -55 -3 -4 -21 -4 -40 0 -24 5 -35 4 -35 -4 0 -6 -4 -5
-9 3 -8 12 -12 12 -25 -2 -19 -18 -21 -31 -4 -21 8 5 9 2 5 -10 -4 -10 -7 -22
-7 -27 0 -5 -6 -9 -14 -9 -7 0 -20 -20 -28 -45 -13 -38 -13 -45 -1 -45 18 0
13 -33 -7 -41 -10 -4 -18 3 -25 25 -8 24 -19 33 -55 43 -47 14 -90 10 -102
-10 -10 -16 -10 -37 0 -36 30 5 57 -7 99 -46 45 -41 46 -44 23 -45 -14 0 -40
4 -58 9 -33 10 -82 -2 -82 -20 0 -4 -9 -11 -20 -14 -11 -3 -20 -13 -20 -21 0
-8 -4 -14 -8 -14 -14 0 -32 -65 -32 -118 0 -34 -4 -52 -12 -53 -7 -1 -2 -4 12
-8 17 -5 29 -2 38 8 11 14 12 14 7 0 -5 -12 0 -15 23 -11 15 2 44 -3 63 -11
l34 -15 -28 -11 c-16 -6 -36 -11 -46 -11 -10 0 -35 -11 -55 -25 l-37 -25 5 22
c3 13 -3 5 -14 -17 -17 -35 -20 -37 -20 -15 0 20 -2 22 -10 9 -5 -9 -12 -30
-15 -49 -3 -18 -12 -45 -20 -61 -15 -27 -23 -104 -13 -114 2 -3 19 9 36 26 32
31 32 31 32 8 0 -13 -9 -30 -20 -37 -11 -7 -20 -17 -20 -22 0 -14 44 -12 58 2
10 10 15 10 22 -2 5 -8 10 -10 10 -4 0 6 15 10 33 10 17 0 51 4 75 8 26 6 42
5 42 -1 0 -6 -20 -13 -45 -17 -56 -7 -85 -22 -85 -43 0 -13 9 -15 54 -11 30 3
55 2 54 -1 -2 -23 8 -30 54 -41 46 -12 52 -11 65 6 22 30 15 62 -23 104 -20
22 -30 38 -22 35 10 -4 19 9 31 48 9 30 17 65 17 79 0 14 12 52 26 84 26 58
51 217 40 257 -3 11 2 33 10 50 19 36 44 116 44 141 0 10 16 53 35 96 19 43
38 100 41 126 6 55 22 114 70 259 18 55 42 131 54 169 12 38 36 101 54 140 19
39 44 106 57 149 13 42 27 77 31 77 4 0 18 -15 31 -32 19 -25 26 -52 32 -108
4 -51 16 -94 36 -135 28 -59 47 -136 84 -345 10 -52 22 -98 28 -102 6 -3 10
-29 9 -57 0 -28 3 -51 9 -51 5 0 9 -9 9 -19 0 -11 4 -22 9 -25 4 -3 11 -41 14
-84 2 -44 10 -89 16 -100 7 -13 9 -52 5 -109 -5 -68 -3 -99 10 -137 11 -31 13
-52 7 -60 -23 -28 -10 -126 17 -126 13 0 12 -3 -3 -20 -14 -16 -16 -25 -8 -43
6 -12 11 -33 11 -47 2 -60 13 -91 38 -100 27 -11 32 -28 9 -36 -22 -9 -19 -44
4 -44 11 0 22 -4 25 -8 5 -9 100 -7 116 3 5 3 10 21 10 39 0 32 -2 34 -46 40
-48 6 -114 48 -114 72 0 11 10 13 43 8 23 -3 47 -7 54 -9 7 -2 15 0 18 5 4 6
15 10 26 10 15 0 19 7 19 34 0 42 -31 65 -97 71 -34 4 -54 13 -70 30 -13 13
-23 26 -23 28 0 2 25 4 56 4 42 0 60 6 78 22 12 11 30 21 40 21 14 0 17 8 14
47 -3 42 -6 47 -31 54 -16 4 -35 13 -43 20 -20 16 -1 29 44 29 30 0 32 2 32
34 0 31 -3 34 -37 40 -21 3 -49 15 -63 26 -31 25 -12 26 47 4 24 -9 46 -14 49
-12 3 3 4 28 2 56 l-3 49 -48 -12 c-26 -7 -59 -23 -72 -35 -14 -13 -25 -18
-25 -12 0 7 -6 12 -14 12 -8 0 -22 10 -30 22 -14 20 -14 23 -1 31 9 4 25 5 38
2 16 -5 18 -4 8 3 -11 8 -9 11 8 17 11 3 21 11 21 17 0 7 22 9 60 6 l59 -4 0
95 c0 94 -1 96 -26 108 -32 15 -55 1 -51 -31 2 -13 -3 -21 -12 -21 -8 0 -15
-6 -15 -14 0 -21 -22 -24 -29 -4 -9 23 4 122 16 129 6 4 14 1 18 -6 5 -9 9 -9
14 -1 4 6 12 9 17 6 5 -3 6 1 3 10 -4 9 -12 14 -18 12 -6 -2 -21 -1 -33 4 -18
7 -23 16 -23 47 0 47 15 65 42 51 17 -9 18 -8 6 11 -11 18 -10 23 12 40 17 13
24 27 22 43 -3 20 2 25 27 30 l31 7 0 464 0 464 -42 14 c-36 11 -42 17 -40 36
3 18 -4 26 -32 37 -47 20 -207 19 -261 -1z m-398 -486 c-3 -8 -6 -5 -6 6 -1
11 2 17 5 13 3 -3 4 -12 1 -19z m713 -230 c14 -13 18 -26 14 -42 -3 -13 -1
-27 5 -30 6 -4 11 -22 10 -39 0 -25 -2 -28 -8 -13 -4 11 -10 15 -14 10 -3 -6
-2 -16 4 -24 13 -21 11 -30 -6 -30 -9 0 -18 7 -21 15 -4 8 -12 15 -20 15 -8 0
-14 7 -14 16 0 10 -6 14 -14 11 -8 -3 -17 -1 -20 6 -2 7 -5 -5 -5 -25 -1 -26
6 -43 21 -57 19 -18 19 -21 5 -27 -10 -3 -17 -10 -17 -15 0 -4 6 -6 13 -3 10
3 12 -5 9 -31 -3 -21 0 -35 7 -35 6 0 11 -7 11 -15 0 -8 8 -15 18 -15 14 0 15
-2 2 -10 -9 -5 -19 -5 -27 2 -7 6 -13 7 -13 2 0 -4 -6 -2 -12 4 -9 9 -9 15 -2
20 5 4 7 20 3 37 l-7 30 -1 -27 c0 -16 -5 -28 -9 -28 -5 0 -7 14 -4 30 2 17 0
30 -6 30 -6 0 -10 9 -9 20 1 11 6 20 12 20 5 0 4 4 -4 9 -9 6 -11 18 -7 35 4
15 2 26 -4 26 -15 0 -12 42 4 65 7 11 17 34 20 52 6 27 12 32 36 31 16 -1 39
-10 50 -20z m10 -198 c0 -5 -9 -10 -21 -10 -11 0 -17 5 -14 10 3 6 13 10 21
10 8 0 14 -4 14 -10z m10 -80 c0 -18 -19 -11 -30 11 -11 19 -10 20 9 9 12 -6
21 -15 21 -20z m-824 -98 c9 -5 8 -10 -1 -19 -10 -9 -14 -8 -18 8 -5 20 0 24
19 11z m754 -19 c0 -15 -2 -15 -24 -7 -23 9 -20 23 4 21 11 -1 20 -7 20 -14z
m100 -252 c0 -5 -9 -7 -20 -4 -11 3 -20 7 -20 9 0 2 9 4 20 4 11 0 20 -4 20
-9z m-20 -61 c0 -5 -2 -10 -4 -10 -3 0 -8 5 -11 10 -3 6 -1 10 4 10 6 0 11 -4
11 -10z m-1073 -314 c26 -14 60 -28 76 -31 34 -9 45 -25 17 -25 -53 0 -78 -39
-40 -62 18 -11 29 -48 14 -48 -9 0 -34 28 -34 39 0 5 -32 42 -70 80 -68 69
-69 71 -41 71 16 0 51 -11 78 -24z m-69 -288 c18 -10 41 -18 51 -18 27 0 51
-10 51 -22 0 -6 -9 -8 -21 -5 -38 10 -34 -23 6 -59 64 -56 34 -47 -41 12 -38
31 -81 63 -96 71 -15 9 -29 25 -31 35 -4 15 -1 17 21 11 15 -3 42 -15 60 -25z"/>
<path d="M9395 2490 c-24 -26 -8 -45 20 -23 14 11 16 17 7 20 -6 3 -10 9 -6
14 9 16 -2 10 -21 -11z"/>
<path d="M1 3211 c-1 -24 2 -32 9 -25 7 7 7 19 1 35 -9 23 -10 22 -10 -10z"/>
<path d="M4978 3192 c-4 -12 -2 -25 4 -28 15 -10 19 1 10 26 l-9 24 -5 -22z"/>
<path d="M5077 3186 c-38 -30 -28 -51 26 -52 74 -3 78 -4 72 -14 -3 -5 -1 -10
4 -10 6 0 11 3 11 8 0 4 26 9 57 10 32 2 59 5 60 6 2 1 -25 17 -60 34 -84 43
-134 48 -170 18z m17 -21 c-4 -8 -11 -15 -16 -15 -6 0 -5 6 2 15 7 8 14 15 16
15 2 0 1 -7 -2 -15z"/>
<path d="M8406 3178 c-3 -13 -6 -34 -6 -46 0 -13 -9 -35 -20 -49 -21 -27 -25
-43 -12 -43 16 0 39 56 45 108 6 55 3 67 -7 30z"/>
<path d="M0 3126 c0 -34 4 -46 15 -46 18 0 19 11 3 29 -11 11 -9 13 10 8 28
-7 28 2 -3 32 l-25 23 0 -46z"/>
<path d="M4980 3140 c0 -5 5 -10 10 -10 6 0 10 5 10 10 0 6 -4 10 -10 10 -5 0
-10 -4 -10 -10z"/>
<path d="M3370 3097 c-25 -27 -41 -67 -26 -67 14 0 61 33 89 63 l34 35 -34 0
c-25 0 -42 -8 -63 -31z"/>
<path d="M5339 3119 c-20 -7 -26 -16 -25 -35 0 -15 6 -22 14 -19 17 6 11 -27
-7 -41 -12 -9 -10 -14 11 -28 15 -10 29 -24 32 -33 5 -12 1 -14 -19 -9 -14 4
-25 3 -25 -2 0 -20 -51 -32 -93 -22 -49 10 -90 3 -83 -15 3 -8 -4 -10 -21 -7
-16 3 -24 1 -20 -5 3 -5 -9 -16 -28 -23 -19 -8 -37 -21 -40 -31 -3 -9 -14 -24
-25 -34 -35 -31 -24 -42 48 -48 92 -8 305 -86 237 -87 -18 0 -18 -2 4 -19 26
-20 35 -48 22 -66 -4 -5 -9 -28 -10 -50 -4 -50 -22 -87 -58 -114 -16 -12 -38
-30 -50 -39 -17 -13 -20 -21 -13 -32 9 -13 11 -13 20 0 5 8 11 18 12 23 2 4
14 9 27 12 14 2 28 10 32 16 11 18 15 -98 6 -174 -8 -73 -34 -135 -72 -173
-34 -34 -112 -34 -143 -1 -28 30 -91 185 -98 240 -7 57 -22 117 -23 92 0 -11
4 -37 8 -59 10 -41 5 -70 -10 -60 -5 3 -6 -2 -3 -10 3 -9 10 -16 15 -16 6 0 5
-9 -1 -20 -6 -11 -19 -20 -30 -20 -10 0 -23 -6 -27 -12 -10 -16 -53 -41 -60
-35 -5 6 -7 39 -2 52 2 6 0 25 -4 43 l-7 33 -27 -26 c-16 -14 -36 -28 -46 -31
-10 -3 -17 -11 -16 -17 4 -34 -1 -41 -17 -21 -15 18 -15 18 -8 -5 4 -17 3 -21
-6 -16 -8 5 -18 1 -26 -10 -8 -11 -21 -16 -34 -12 -19 5 -20 1 -19 -54 1 -41
7 -62 17 -68 10 -5 13 -15 8 -27 -6 -16 -8 -16 -23 -2 -8 9 -15 28 -15 43 0
24 -2 24 -13 8 -21 -30 -24 -79 -4 -67 8 4 8 0 0 -15 -8 -14 -8 -21 -1 -21 5
0 10 -8 10 -18 0 -18 -18 -42 -32 -42 -13 0 -28 74 -28 145 0 107 -28 134 -38
36 -4 -46 20 -170 38 -196 4 -5 13 -34 19 -63 6 -30 15 -61 20 -70 6 -11 5
-23 -4 -35 -11 -16 -15 -15 -50 13 -21 16 -46 40 -56 51 -11 12 -22 19 -26 16
-3 -4 -12 -2 -19 4 -8 6 -14 6 -18 0 -4 -5 -2 -12 4 -16 19 -12 42 -78 29 -86
-6 -4 9 -5 33 -2 25 3 69 0 99 -7 30 -7 83 -13 119 -15 79 -3 114 -16 136 -50
16 -24 16 -27 -1 -45 -18 -20 -8 -29 11 -10 8 8 15 6 25 -6 11 -14 11 -18 -5
-30 -10 -7 -24 -15 -30 -17 -6 -2 -8 -8 -4 -12 4 -4 14 -2 22 4 15 12 36 7 36
-8 0 -4 -11 -13 -25 -19 -23 -11 -24 -14 -13 -34 7 -12 23 -33 36 -48 17 -19
21 -20 16 -6 -6 17 -4 18 21 12 55 -14 125 -81 125 -121 0 -12 -5 -15 -22 -9
-21 6 -20 5 5 -25 15 -18 27 -40 27 -49 0 -15 -2 -15 -10 -2 -8 13 -10 13 -10
1 0 -12 -3 -12 -12 -3 -22 22 -29 12 -11 -15 10 -15 12 -24 6 -20 -10 6 -13
-3 -13 -33 0 -64 -57 -126 -132 -144 -21 -5 -28 -3 -28 8 0 20 -26 27 -40 11
-12 -15 3 -31 20 -20 6 4 5 -5 -2 -19 -6 -14 -18 -26 -26 -26 -22 0 2 -25 38
-40 17 -7 30 -19 30 -26 0 -18 -72 -18 -120 0 -95 37 -207 90 -225 108 -20 19
-20 19 51 87 40 38 74 77 77 87 12 45 20 102 18 137 -2 27 4 45 23 67 l25 31
-47 47 c-26 26 -56 60 -67 75 -17 24 -33 30 -120 47 -130 26 -149 34 -135 59
16 32 12 33 -30 6 -79 -50 -240 -209 -240 -237 0 -25 -11 1 -16 42 -5 32 -3
41 6 35 9 -6 9 -2 0 15 -6 12 -9 24 -6 28 3 3 6 0 6 -7 0 -7 5 -9 11 -5 8 4 8
9 0 17 -14 14 -14 47 -1 47 5 0 7 -7 4 -15 -4 -8 -2 -15 4 -15 5 0 13 12 18
28 5 20 8 23 11 10 7 -27 23 -21 23 7 0 22 -4 25 -35 25 -31 0 -35 3 -35 25 0
24 47 81 58 71 2 -3 16 0 31 5 19 7 23 7 15 -1 -6 -6 -9 -23 -6 -39 5 -39 43
-47 72 -16 22 23 26 45 9 45 -5 0 -7 -6 -4 -12 4 -7 -4 -2 -17 12 -13 14 -32
25 -43 24 -11 0 -26 4 -33 9 -8 7 -21 6 -36 -1 -26 -11 -48 -2 -52 23 -6 41
-12 45 -59 38 -41 -5 -45 -4 -45 15 0 15 -5 20 -15 16 -8 -4 -15 -10 -15 -15
0 -5 -7 -17 -14 -26 -80 -97 -96 -120 -96 -136 0 -14 4 -17 18 -12 37 16 69
17 85 1 8 -9 19 -16 22 -16 4 0 20 -11 37 -25 16 -14 37 -25 46 -25 13 0 14
-2 4 -8 -8 -5 -11 -23 -9 -48 2 -30 -4 -50 -29 -90 -24 -38 -29 -55 -22 -68 5
-9 7 -25 3 -34 -5 -14 -10 -12 -33 14 -15 18 -44 37 -64 44 -21 6 -38 15 -38
18 0 4 -13 21 -28 39 l-28 32 11 86 c7 47 8 88 3 91 -4 3 -8 -5 -9 -18 0 -22
-1 -22 -9 -3 -8 18 -9 18 -9 2 -1 -10 -5 -16 -10 -13 -4 3 -6 -5 -4 -17 3 -15
-9 -45 -31 -82 -33 -55 -34 -61 -21 -82 13 -19 13 -24 -1 -37 -8 -9 -25 -16
-36 -16 -14 0 -61 -40 -131 -110 l-109 -111 5 -117 c3 -64 7 -153 9 -197 5
-105 9 -111 59 -83 39 22 50 38 27 38 -21 1 20 21 49 25 16 2 41 10 58 19 22
12 31 13 37 3 6 -9 10 -9 17 2 5 8 16 11 24 8 9 -3 18 0 20 8 4 8 -9 17 -39
25 -24 7 -44 16 -44 19 0 4 20 13 45 20 25 7 49 20 54 29 8 14 11 14 26 -2 11
-10 24 -14 34 -10 24 10 61 13 77 7 11 -4 12 -9 3 -19 -8 -9 -8 -14 -1 -14 11
0 38 36 62 84 8 15 25 32 38 37 31 12 99 11 122 -1 17 -9 22 -5 39 27 10 21
34 46 53 56 22 12 37 29 44 50 5 20 17 33 29 35 16 3 18 1 8 -9 -7 -7 -13 -19
-13 -26 0 -21 28 -3 38 25 6 15 13 35 17 45 4 9 3 17 -3 17 -6 0 -13 -9 -17
-19 -4 -13 -12 -17 -26 -14 -13 4 -18 11 -15 20 14 35 18 93 7 93 -6 0 -11 5
-11 11 0 6 7 9 15 5 8 -3 15 0 15 7 0 7 6 19 13 25 6 7 13 17 13 22 1 6 2 15
3 20 1 13 31 13 31 -1 0 -6 9 -8 20 -4 16 5 20 2 20 -14 0 -14 6 -21 19 -21
23 0 117 -46 127 -61 4 -8 1 -8 -13 -1 -22 12 -29 9 -66 -36 -16 -20 -27 -46
-27 -63 0 -17 -6 -42 -14 -58 -15 -28 -46 -59 -46 -46 0 4 8 14 18 21 14 11
14 15 3 23 -9 6 -11 16 -5 32 5 13 9 33 9 44 0 11 7 20 15 20 18 0 62 64 53
78 -3 5 -20 -6 -37 -26 -37 -42 -81 -57 -70 -25 4 15 2 19 -7 16 -24 -8 -23
-49 0 -55 25 -6 25 -6 4 -61 -10 -28 -13 -46 -6 -50 18 -13 22 -40 7 -53 -18
-14 -40 -63 -48 -104 -6 -29 -5 -30 31 -30 24 -1 52 -11 78 -28 22 -15 35 -27
30 -27 -6 0 -3 -6 6 -13 23 -18 40 -53 33 -71 -4 -9 -1 -23 5 -30 16 -19 3
-163 -17 -194 -14 -21 -16 -21 -32 -7 -12 11 -20 13 -25 5 -3 -5 -11 -8 -16
-5 -5 4 -9 1 -9 -4 0 -17 -27 -13 -34 5 -4 9 -13 14 -21 10 -11 -4 -15 0 -13
11 2 12 -9 20 -37 29 -22 6 -82 33 -134 59 -51 26 -99 48 -107 49 -7 1 -17 5
-20 9 -14 14 -24 6 -45 -34 l-21 -42 -39 42 c-21 22 -39 44 -39 49 0 4 -9 13
-20 20 -18 11 -20 10 -20 -8 0 -11 7 -20 15 -20 8 0 15 -4 15 -9 0 -6 -13 -6
-32 -1 -31 9 -32 8 -13 -6 11 -8 26 -19 34 -23 8 -5 16 -31 19 -60 4 -49 14
-63 27 -41 3 6 2 10 -4 10 -5 0 -9 20 -9 45 l0 44 24 -24 c13 -13 24 -31 24
-39 0 -28 -23 -67 -37 -62 -7 3 -13 1 -13 -4 0 -6 8 -10 17 -10 15 0 15 -1 1
-12 -9 -7 -28 -34 -41 -59 -13 -26 -36 -62 -50 -80 -14 -19 -35 -53 -47 -76
-27 -53 -38 -54 -150 -4 -65 28 -85 42 -85 57 0 15 6 19 30 17 29 -1 28 -1
-10 16 -28 13 -42 15 -47 7 -4 -6 -6 13 -4 43 2 39 8 58 21 68 15 10 20 27 21
73 1 39 8 69 20 87 14 21 41 81 44 99 0 0 -10 0 -22 -1 -14 -1 -22 -9 -23 -24
-1 -12 -27 -47 -60 -79 l-57 -56 6 -85 c4 -48 8 -124 9 -171 5 -207 8 -247 18
-215 10 34 17 98 18 168 1 33 5 46 12 41 18 -10 1 -223 -21 -264 -5 -10 -10
-39 -10 -64 l0 -46 960 0 c611 0 960 4 960 10 0 13 27 13 32 -1 2 -7 12 -7 33
1 21 8 31 8 33 1 2 -7 56 -11 153 -11 118 0 149 3 149 13 0 8 12 19 28 26 20
9 24 10 15 1 -14 -15 -6 -40 14 -40 8 0 22 7 30 16 13 13 17 13 24 2 7 -10 9
-9 9 3 0 18 30 21 42 4 5 -6 8 -5 8 3 0 19 18 14 25 -8 8 -26 27 -26 43 0 10
17 10 20 -3 20 -19 0 -19 9 0 34 8 11 15 14 15 8 0 -7 9 -12 21 -12 11 0 17 4
14 10 -3 5 1 10 9 10 9 0 25 9 36 20 22 22 50 27 50 8 0 -6 -3 -9 -6 -6 -7 8
-54 -36 -54 -51 0 -7 -5 -9 -11 -6 -11 7 -59 -31 -59 -47 0 -4 27 -8 59 -8 48
0 60 3 64 18 4 16 5 16 6 0 1 -17 23 -18 321 -18 l320 0 -4 23 c-3 12 -8 55
-11 96 -7 79 -19 121 -34 121 -6 0 -6 -14 0 -36 11 -39 4 -91 -17 -111 -9 -9
-10 -22 -4 -42 6 -21 5 -31 -5 -35 -9 -3 -17 14 -25 57 -8 34 -17 65 -22 68
-5 3 -4 17 1 32 6 16 7 29 1 32 -12 7 -30 -27 -30 -57 0 -13 -3 -18 -8 -12 -5
8 -15 8 -35 -1 -15 -6 -24 -15 -20 -19 4 -4 0 -4 -10 0 -10 3 -17 11 -16 18 3
27 -2 33 -27 28 -15 -3 -23 -10 -20 -18 3 -7 0 -15 -7 -18 -8 -3 -6 -10 7 -20
17 -14 17 -16 4 -16 -9 0 -20 5 -23 10 -4 6 -11 8 -16 5 -5 -4 -9 1 -9 9 0 12
-10 16 -35 16 -23 0 -35 5 -35 14 0 17 62 15 68 -2 6 -19 29 -14 35 8 3 11 14
20 24 20 11 0 29 9 40 19 23 22 33 18 33 -13 0 -15 3 -17 9 -8 4 8 12 13 17
13 5 -1 10 8 10 19 1 21 -12 28 -18 10 -2 -6 -9 0 -17 11 -13 22 -12 22 34 16
45 -7 47 -6 43 16 -12 52 -28 147 -38 222 -7 44 -14 96 -17 115 -6 43 10 60
82 88 32 13 57 17 71 12 23 -9 74 -65 74 -82 0 -5 32 -69 71 -141 53 -97 72
-141 72 -169 0 -21 2 -38 6 -38 8 0 3 -140 -5 -160 -4 -8 -6 -26 -6 -40 3 -56
-31 46 -36 108 -2 34 -8 62 -13 62 -12 0 -11 -49 2 -111 11 -49 10 -53 -11
-69 -15 -11 -21 -23 -17 -34 5 -13 23 -16 97 -16 l92 0 -8 33 c-4 17 -7 78 -6
135 0 56 -2 102 -4 102 -8 0 -34 -73 -34 -96 0 -12 -4 -26 -10 -29 -12 -7 -11
-13 -16 110 -2 55 -6 128 -10 162 -7 72 1 142 20 168 11 15 23 16 94 10 76 -7
83 -9 88 -32 4 -14 12 -22 19 -19 8 3 16 -2 19 -9 3 -8 12 -12 20 -9 15 6 21
-13 31 -91 6 -49 21 -103 33 -118 5 -7 17 -34 27 -62 25 -72 37 -95 46 -89 5
3 2 18 -6 34 -13 25 -13 29 1 41 20 17 225 -2 268 -25 16 -8 33 -13 38 -10 7
5 12 -10 9 -28 -2 -15 18 -8 21 8 2 13 10 11 50 -10 27 -14 55 -22 67 -19 26
7 29 -21 4 -33 -22 -9 -73 -11 -73 -3 0 4 -11 6 -25 5 -23 -1 -29 -8 -26 -28
0 -5 -4 -8 -9 -8 -6 0 -10 8 -10 17 0 12 -3 14 -10 7 -7 -7 -8 -19 -1 -37 10
-25 8 -26 -42 -41 -30 -9 -56 -11 -61 -6 -4 4 -15 6 -22 3 -8 -3 -14 -1 -14 5
0 14 34 25 38 13 5 -16 22 -13 22 3 0 8 -7 17 -16 20 -8 3 -12 11 -8 17 4 8 3
9 -4 5 -7 -4 -12 -2 -12 3 0 6 -5 11 -11 11 -6 0 -8 -7 -5 -16 10 -27 -20 -72
-49 -71 -15 0 -31 -5 -36 -10 -11 -11 82 -10 100 2 6 3 11 2 11 -4 0 -7 49
-10 138 -8 l137 2 6 40 c15 88 30 171 35 187 5 16 -6 18 -108 20 l-113 3 55
16 c30 9 75 20 100 23 24 4 52 14 62 23 24 22 23 88 -2 160 -11 32 -20 69 -20
83 0 20 -2 22 -10 10 -10 -15 -3 -76 10 -95 4 -5 10 -18 14 -29 5 -15 3 -17
-11 -11 -28 12 -83 15 -83 5 0 -6 -11 -10 -24 -10 -14 0 -27 -4 -31 -9 -3 -5
-17 -8 -30 -5 -15 3 -25 0 -25 -7 0 -6 -7 -8 -16 -5 -11 4 -22 -1 -31 -14 -20
-28 -73 -28 -73 0 0 21 0 21 -21 2 -27 -26 -119 -28 -119 -3 0 14 -2 14 -10 1
-26 -41 -65 44 -42 94 37 84 41 96 29 96 -8 0 -8 3 -1 8 5 4 15 23 20 42 7 25
32 54 94 108 89 76 102 92 76 92 -19 0 -22 17 -3 17 19 0 171 26 176 30 3 2
-9 18 -25 36 -17 17 -54 88 -83 157 -29 69 -57 129 -62 135 -14 14 -11 53 11
156 11 52 20 112 20 135 0 52 43 272 59 302 10 18 9 22 -4 22 -8 0 -15 3 -15
8 -7 105 -5 242 4 239 6 -2 11 -26 12 -53 1 -27 2 -65 4 -84 l2 -35 8 40 c10
51 13 284 6 485 -7 231 -12 269 -36 295 -17 18 -20 30 -14 63 6 37 4 41 -23
55 -16 9 -58 21 -93 27 -36 6 -96 21 -135 32 -38 11 -81 22 -95 26 -14 3 -43
16 -65 30 l-39 25 -96 -18 c-102 -20 -124 -30 -100 -46 12 -8 10 -9 -7 -4 -16
4 -25 0 -33 -15 -7 -13 -7 -20 0 -20 21 0 9 -20 -16 -26 -14 -4 -22 -9 -16
-13 5 -3 6 -15 2 -26 -7 -18 -8 -19 -15 -2 -4 9 -13 17 -21 17 -8 0 -11 6 -8
15 3 8 11 13 16 12 6 -1 12 9 13 22 1 14 7 27 14 29 6 2 9 7 6 11 -2 5 0 23 5
42 6 21 6 37 0 43 -7 7 -10 2 -10 -14 0 -23 0 -23 -16 -4 -15 18 -15 17 -10
-14 12 -70 -64 -141 -167 -156 l-47 -7 29 -25 c18 -15 27 -31 25 -42 -3 -10 9
-31 28 -51 18 -19 25 -32 16 -29 -20 8 -45 -10 -50 -37 -3 -16 -11 -20 -43
-18 -36 3 -37 2 -19 -12 10 -8 30 -15 44 -15 28 0 50 -16 50 -36 0 -12 -54 -5
-81 11 -8 5 -5 -2 6 -15 l20 -23 -20 6 c-26 9 -54 -7 -30 -17 9 -3 21 -4 26 0
5 3 17 0 26 -6 16 -10 15 -10 -4 -5 -12 3 -24 1 -28 -4 -9 -15 74 -71 105 -71
70 0 167 58 207 125 7 11 3 -9 -9 -45 -12 -36 -29 -76 -39 -90 -41 -59 -98
-182 -128 -277 -17 -56 -41 -113 -51 -126 -11 -14 -20 -33 -20 -42 0 -9 -4
-14 -9 -11 -5 3 -9 -4 -9 -17 -2 -97 -17 -153 -38 -139 -10 7 -75 200 -127
382 -14 47 -34 109 -46 138 -13 31 -21 75 -21 108 l0 56 -20 -23 c-14 -17 -19
-20 -20 -9 0 8 -6 27 -14 42 -8 15 -12 36 -9 47 3 12 2 29 -1 38 -6 15 -8 15
-16 3 -7 -11 -12 -7 -24 21 -8 20 -23 40 -33 43 -15 6 -16 9 -3 16 25 14 144
134 127 127 -9 -3 -34 -11 -56 -17 -56 -15 -161 -112 -161 -149 0 -26 -20 -69
-20 -43 0 6 -7 12 -15 12 -8 0 -16 6 -17 13 0 6 -2 17 -3 22 -2 6 -3 18 -4 28
0 10 -5 15 -11 12 -6 -3 -7 1 -4 9 4 11 0 16 -10 16 -9 0 -16 8 -16 19 0 29
-40 34 -68 8 l-24 -22 39 -35 c40 -35 62 -83 43 -95 -5 -3 -10 -15 -10 -26 0
-11 -4 -17 -10 -14 -5 3 -10 1 -10 -4 0 -6 5 -11 10 -11 6 0 10 -7 10 -17 0
-11 13 -3 41 25 22 23 44 42 49 42 12 0 23 -104 17 -155 -6 -42 4 -67 18 -45
3 5 12 10 18 10 7 0 4 -5 -6 -11 -9 -6 -14 -15 -11 -21 5 -7 1 -9 -9 -5 -15 5
-17 -1 -18 -46 0 -29 -4 -73 -8 -99 -4 -26 -5 -51 -1 -55 4 -4 15 -30 25 -58
40 -110 98 -226 111 -221 8 3 11 0 7 -10 -3 -8 2 -33 12 -54 16 -35 21 -39 44
-34 25 5 25 5 7 -10 -15 -13 -17 -20 -8 -46 12 -33 36 -62 45 -54 3 3 4 -2 1
-13 -2 -10 22 -67 54 -128 45 -86 61 -109 76 -107 13 2 16 0 10 -10 -20 -31
17 -103 49 -94 17 4 18 3 3 -13 -14 -15 -14 -20 4 -49 11 -17 25 -30 32 -28 7
1 10 1 6 -1 -5 -3 -8 -9 -8 -14 0 -6 4 -7 10 -4 5 3 7 0 5 -8 -3 -7 1 -30 10
-50 23 -56 17 -58 -11 -3 -14 26 -35 51 -46 54 -13 3 -16 7 -8 12 9 6 8 15 -6
39 -10 17 -22 31 -26 31 -4 0 -8 10 -8 23 0 13 -11 38 -25 57 -14 19 -25 38
-25 43 0 6 -31 67 -68 136 -38 69 -72 138 -75 153 -4 15 -14 33 -22 42 -8 8
-15 19 -15 24 0 5 -20 49 -43 98 -24 49 -59 126 -77 172 -35 86 -49 101 -51
55 -1 -16 -2 -51 -3 -80 -2 -29 -8 -58 -14 -65 -12 -15 11 -51 38 -61 11 -4
10 -6 -4 -6 -16 -1 -17 -6 -11 -38 4 -21 8 -45 10 -53 1 -8 -5 -20 -13 -26
-15 -11 -8 -39 7 -30 9 6 35 -63 27 -71 -2 -3 -17 8 -31 23 -21 22 -36 29 -65
29 -34 0 -39 -3 -44 -29 -5 -24 -8 -26 -21 -16 -20 16 -112 -34 -137 -76 -24
-40 -344 -258 -469 -319 -102 -50 -142 -54 -147 -18 -4 31 35 88 109 159 86
82 160 130 312 203 78 38 127 67 127 76 0 8 5 15 11 15 5 0 7 -5 3 -12 -5 -8
-2 -9 12 -4 46 18 74 19 74 2 0 -9 3 -16 6 -16 11 0 64 34 64 41 0 9 -74 65
-79 59 -4 -6 -21 35 -27 69 -3 13 4 41 16 62 11 22 20 45 20 52 1 28 16 37 47
28 18 -5 35 -5 40 0 5 5 20 2 36 -6 15 -7 28 -11 28 -7 4 21 -5 48 -17 55 -8
4 -14 12 -14 17 0 6 -8 18 -18 28 -17 17 -21 17 -43 3 -13 -8 -39 -28 -56 -45
-18 -16 -35 -27 -38 -24 -8 8 5 38 17 38 5 0 2 7 -6 16 -9 8 -16 24 -16 35 0
35 -61 102 -120 132 -30 15 -63 27 -73 27 -11 0 -21 9 -24 21 -3 12 -11 18
-19 15 -8 -3 -31 1 -51 8 -21 7 -44 11 -52 8 -8 -3 -19 2 -25 10 -14 18 -107
63 -123 60 -8 -2 -10 3 -6 14 4 12 3 15 -5 10 -7 -4 -12 -2 -12 4 0 15 -69 80
-86 80 -8 0 -28 13 -45 29 l-30 29 34 34 c19 18 42 47 50 65 34 66 74 381 58
453 -11 49 -12 51 -43 54 -12 2 -32 5 -43 9 -11 3 -32 1 -46 -4z m1776 -199
c3 -5 1 -10 -4 -10 -6 0 -11 5 -11 10 0 6 2 10 4 10 3 0 8 -4 11 -10z m35 -10
c0 -5 -4 -10 -10 -10 -5 0 -10 5 -10 10 0 6 5 10 10 10 6 0 10 -4 10 -10z m44
-9 c11 -4 15 -10 10 -13 -5 -4 -18 0 -29 8 -20 15 -12 17 19 5z m-2049 -89
c-3 -3 -11 0 -18 7 -9 10 -8 11 6 5 10 -3 15 -9 12 -12z m2504 -62 c21 -38 32
-98 36 -188 1 -31 6 -118 9 -192 13 -234 13 -290 5 -290 -10 0 -10 4 -14 160
-2 63 -6 156 -10 205 -3 50 -8 119 -9 155 -3 63 -20 133 -37 156 -5 6 -6 14
-2 17 3 4 1 7 -5 7 -7 0 -12 8 -12 18 0 15 2 15 11 2 5 -8 18 -31 28 -50z
m-204 20 c3 -5 1 -10 -4 -10 -6 0 -11 5 -11 10 0 6 2 10 4 10 3 0 8 -4 11 -10z
m41 -69 c-14 -26 -25 -57 -24 -67 0 -11 -4 -39 -10 -64 -6 -24 -9 -46 -7 -48
2 -3 -2 -11 -10 -18 -19 -20 -72 -192 -95 -314 -21 -107 -30 -133 -30 -87 0
24 18 106 54 254 9 36 10 55 3 62 -8 8 -7 11 4 11 12 0 12 2 -1 10 -12 8 -11
10 7 10 14 0 24 9 31 30 10 28 9 30 -16 35 -15 4 -49 13 -76 21 -26 7 -58 14
-70 14 -11 0 -28 5 -36 11 -11 8 -1 9 39 5 29 -3 58 -10 65 -15 6 -5 35 -13
63 -17 50 -6 52 -5 59 20 3 14 3 37 0 51 -4 14 -3 25 1 25 5 0 19 27 31 60 13
33 28 60 33 60 5 0 -2 -22 -15 -49z m-286 -21 c0 -11 -4 -20 -9 -20 -14 0 -23
18 -16 30 10 17 25 11 25 -10z m433 -11 c-6 -6 -10 -25 -8 -43 1 -17 0 -21 -2
-8 -3 13 -9 20 -15 16 -7 -5 -8 -2 -3 7 13 23 27 39 33 39 3 0 1 -5 -5 -11z
m-288 -18 c18 -7 17 -8 -6 -14 -28 -7 -69 1 -69 14 0 11 47 11 75 0z m65 -15
c0 -12 -13 -36 -20 -36 -4 0 -10 9 -13 20 -4 15 0 20 14 20 10 0 19 -2 19 -4z
m-261 -70 c-11 -32 -18 -60 -16 -62 2 -2 30 -10 63 -18 32 -8 50 -15 39 -16
-13 -1 -5 -7 20 -15 l40 -14 -40 6 c-22 2 -56 9 -75 14 -48 12 -60 11 -60 -5
0 -8 -14 -42 -32 -75 -31 -58 -31 -61 -14 -74 15 -11 16 -17 7 -34 -14 -27
-21 -150 -26 -423 -1 -118 -6 -235 -9 -260 -4 -25 -9 -74 -11 -110 -5 -68 -28
-220 -42 -280 -5 -20 -16 -36 -26 -38 -21 -4 -21 -2 2 100 11 46 22 110 25
143 2 33 2 50 0 38 -3 -13 -10 -23 -15 -23 -5 0 -9 -9 -9 -20 0 -11 -5 -20
-11 -20 -5 0 -8 -4 -5 -9 3 -5 -3 -19 -13 -32 -19 -23 -19 -23 -40 -5 -18 17
-20 27 -15 100 4 73 32 170 56 203 5 7 5 14 -2 18 -18 11 -11 124 19 278 16
84 39 211 50 282 19 130 46 219 61 210 21 -13 40 9 40 46 0 34 8 60 43 136 19
42 17 17 -4 -41z m-899 20 c0 -2 -7 -6 -15 -10 -8 -3 -15 -1 -15 4 0 6 7 10
15 10 8 0 15 -2 15 -4z m117 -36 c-3 -10 0 -18 6 -17 15 3 97 -115 94 -138 -1
-12 3 -19 11 -17 12 2 16 -10 13 -37 -2 -8 2 -10 10 -5 9 5 10 2 6 -9 -3 -9 5
-35 18 -59 29 -50 29 -54 13 -61 -8 -3 -14 6 -15 24 -1 16 -10 40 -19 54 -15
23 -18 24 -34 10 -9 -8 -22 -15 -29 -15 -7 0 0 10 14 23 24 20 26 25 14 50 -6
14 -20 29 -31 32 -10 4 -18 15 -18 25 0 11 -9 34 -19 52 -11 17 -18 35 -15 40
3 5 0 7 -6 6 -6 -2 -19 7 -27 20 -10 15 -12 22 -4 22 7 0 9 5 6 10 -3 6 -1 10
6 10 6 0 9 -8 6 -20z m973 -112 c0 -5 -6 -16 -14 -24 -13 -12 -16 -11 -22 8
-4 13 -2 24 5 26 6 2 8 9 4 15 -4 7 1 6 10 -2 9 -7 17 -18 17 -23z m-44 -113
c-18 -71 -21 -74 -22 -23 -1 22 2 35 6 28 4 -7 10 3 14 25 4 20 10 35 12 32 3
-3 -2 -31 -10 -62z m278 -20 c-4 -8 -8 -15 -10 -15 -2 0 -4 7 -4 15 0 8 4 15
10 15 5 0 7 -7 4 -15z m-2104 -17 c0 -7 3 -23 6 -34 4 -16 0 -23 -15 -27 -11
-2 -29 -20 -40 -38 -26 -42 -26 -38 -1 29 11 28 18 52 15 52 -9 0 19 29 28 30
4 0 7 -6 7 -12z m849 -77 c-15 -5 -22 6 -14 19 6 9 10 9 16 -1 5 -8 4 -15 -2
-18z m181 -2 c-16 -14 -19 -19 -7 -15 23 7 22 -1 -2 -14 -15 -7 -19 -7 -17 4
3 19 26 46 40 46 6 0 0 -10 -14 -21z m1040 -24 c-7 -8 -22 -14 -34 -14 l-21 2
21 4 c12 2 25 14 29 26 4 14 8 17 12 9 3 -7 -1 -19 -7 -27z m-273 3 c-3 -8 -6
-5 -6 6 -1 11 2 17 5 13 3 -3 4 -12 1 -19z m-1502 -23 c-4 -38 -15 -43 -15 -7
0 18 4 32 9 32 5 0 8 -11 6 -25z m1424 -6 c-21 -6 -21 -7 -4 -9 11 -1 15 -4 8
-6 -21 -9 -93 16 -87 29 4 11 16 11 56 3 43 -9 47 -12 27 -17z m-2270 -9 c1
20 38 23 45 5 6 -16 -19 -39 -34 -30 -5 3 -10 1 -10 -4 0 -6 16 -17 35 -25 19
-8 35 -19 35 -23 0 -17 -16 -32 -32 -29 -21 3 -36 16 -20 16 7 0 12 5 12 10 0
6 -9 10 -20 10 -11 0 -20 5 -20 11 0 7 -8 18 -17 26 -17 14 -17 14 1 9 16 -5
17 -4 7 8 -7 8 -9 21 -5 27 5 9 10 7 15 -7 5 -13 8 -14 8 -4z m1439 -27 c1
-27 1 -27 -13 -9 -18 24 -19 36 -2 36 7 0 14 -12 15 -27z m902 12 c0 -18 -26
-20 -36 -3 -5 8 -2 9 9 5 10 -3 17 -2 17 3 0 6 2 10 5 10 3 0 5 -7 5 -15z
m261 -42 c-10 -17 -10 -16 -11 3 0 23 13 41 18 25 2 -6 -1 -18 -7 -28z m-2512
14 c6 -8 8 -17 4 -20 -11 -12 -23 -7 -23 9 0 8 -4 12 -10 9 -5 -3 -10 -1 -10
4 0 15 25 14 39 -2z m2601 -19 c0 -23 -3 -29 -9 -19 -7 11 -10 10 -14 -5 -3
-11 -5 -6 -6 14 -1 20 3 31 9 27 6 -3 10 -1 10 4 0 6 2 11 5 11 3 0 5 -15 5
-32z m-2870 -39 c0 -6 -4 -7 -10 -4 -5 3 -10 11 -10 16 0 6 5 7 10 4 6 -3 10
-11 10 -16z m650 -30 c-16 -29 -23 -17 -15 22 6 26 9 29 17 16 6 -11 5 -24 -2
-38z m1820 25 c67 -20 90 -18 91 9 1 17 3 16 8 -8 4 -16 4 -35 0 -40 -4 -6
-12 -38 -18 -70 -14 -81 -59 -277 -66 -283 -9 -9 -6 10 20 123 15 66 21 111
15 113 -6 2 -10 8 -10 13 0 6 5 7 12 3 7 -5 9 -2 5 9 -3 9 -2 17 3 19 4 2 11
20 15 40 6 34 5 38 -19 44 -14 3 -32 4 -40 1 -8 -3 -17 1 -20 9 -3 8 -16 14
-28 14 -34 0 -68 11 -68 21 0 10 23 6 100 -17z m-2285 -4 c11 -13 14 -20 6
-20 -13 0 -41 24 -41 34 0 12 18 5 35 -14z m-5 -32 c10 -4 6 -8 -13 -13 -34
-9 -44 -1 -27 20 7 9 16 12 19 7 3 -5 13 -11 21 -14z m2677 -55 c-2 -16 -4 -3
-4 27 0 30 2 43 4 28 2 -16 2 -40 0 -55z m-1492 37 c-10 -11 -23 -20 -28 -20
-6 0 -2 9 8 20 10 11 23 20 28 20 6 0 2 -9 -8 -20z m1472 -57 c-2 -16 -4 -5
-4 22 0 28 2 40 4 28 2 -13 2 -35 0 -50z m-2637 47 c0 -5 -4 -10 -10 -10 -5 0
-10 5 -10 10 0 6 5 10 10 10 6 0 10 -4 10 -10z m422 -5 c7 -9 18 -21 24 -28 8
-8 7 -15 -2 -25 -15 -14 -34 -8 -34 11 0 7 4 6 11 -3 9 -13 10 -13 6 0 -4 14
-9 16 -51 19 -18 1 -18 2 -1 21 22 24 30 25 47 5z m2145 -7 c-3 -8 -6 -5 -6 6
-1 11 2 17 5 13 3 -3 4 -12 1 -19z m-1622 -10 c-4 -13 -9 -31 -11 -40 -6 -21
-24 -24 -24 -5 0 19 24 67 33 67 5 0 5 -10 2 -22z m1272 -4 c-3 -3 -12 -4 -19
-1 -8 3 -5 6 6 6 11 1 17 -2 13 -5z m-2129 -29 c-3 -3 -9 2 -12 12 -6 14 -5
15 5 6 7 -7 10 -15 7 -18z m2142 -1 c0 -2 -7 -4 -15 -4 -8 0 -15 4 -15 10 0 5
7 7 15 4 8 -4 15 -8 15 -10z m50 -4 c0 -11 -4 -20 -8 -20 -4 0 -8 9 -9 20 -1
11 2 20 8 20 5 0 9 -9 9 -20z m-2220 0 c0 -5 9 -10 20 -10 11 0 20 5 20 10 0
6 5 10 10 10 11 0 14 -30 3 -31 -32 -4 -103 -4 -103 -1 0 7 34 31 43 32 4 0 7
-4 7 -10z m1597 -5 c0 -8 -4 -12 -8 -10 -4 3 -9 -2 -12 -9 -3 -8 -16 -20 -28
-26 -17 -9 -20 -9 -14 0 5 9 1 10 -16 5 -15 -4 -6 5 21 24 51 35 57 37 57 16z
m898 -82 c-6 -97 -11 -113 -16 -56 -4 40 9 143 17 143 3 0 3 -39 -1 -87z
m-1645 53 c0 -3 -4 -8 -10 -11 -5 -3 -10 -1 -10 4 0 6 5 11 10 11 6 0 10 -2
10 -4z m633 -48 c6 -22 5 -22 -8 -4 -17 22 -20 40 -6 32 5 -3 11 -16 14 -28z
m934 10 c-3 -8 -6 -5 -6 6 -1 11 2 17 5 13 3 -3 4 -12 1 -19z m171 -38 c1 -53
-1 -58 -14 -46 -16 16 -20 91 -4 81 6 -3 10 1 10 9 0 9 2 16 4 16 2 0 4 -27 4
-60z m-2421 34 c-3 -3 -12 -4 -19 -1 -8 3 -5 6 6 6 11 1 17 -2 13 -5z m2293
-4 c0 -5 -5 -10 -11 -10 -5 0 -7 5 -4 10 3 6 8 10 11 10 2 0 4 -4 4 -10z
m-2490 -30 c0 -6 -7 -10 -15 -10 -8 0 -15 2 -15 4 0 2 -3 12 -7 21 -5 15 -3
16 15 6 12 -7 22 -16 22 -21z m257 10 c17 0 13 -22 -5 -28 -7 -2 -12 3 -12 12
0 9 -3 15 -7 15 -20 -3 -26 2 -13 11 10 6 16 6 18 0 2 -6 10 -10 19 -10z
m1423 6 c0 -5 -75 -56 -84 -56 -14 0 6 21 38 41 29 18 46 23 46 15z m755 -6
c3 -5 1 -10 -4 -10 -6 0 -11 5 -11 10 0 6 2 10 4 10 3 0 8 -4 11 -10z m15 -35
c0 -8 -6 -15 -14 -15 -17 0 -28 14 -19 24 12 12 33 6 33 -9z m-2265 -5 c3 -6
-1 -7 -9 -4 -18 7 -21 14 -7 14 6 0 13 -4 16 -10z m639 -5 c-4 -8 -8 -15 -10
-15 -2 0 -4 7 -4 15 0 8 4 15 10 15 5 0 7 -7 4 -15z m596 11 c0 -2 -7 -6 -15
-10 -8 -3 -15 -1 -15 4 0 6 7 10 15 10 8 0 15 -2 15 -4z m-433 -28 c-3 -8 -6
-5 -6 6 -1 11 2 17 5 13 3 -3 4 -12 1 -19z m1220 0 c-3 -8 -6 -5 -6 6 -1 11 2
17 5 13 3 -3 4 -12 1 -19z m-1587 -3 c0 -8 -4 -15 -10 -15 -5 0 -10 7 -10 15
0 8 5 15 10 15 6 0 10 -7 10 -15z m948 4 c-2 -6 -8 -10 -13 -10 -5 0 -11 4
-13 10 -2 6 4 11 13 11 9 0 15 -5 13 -11z m-753 -18 c3 -5 1 -12 -5 -16 -5 -3
-10 1 -10 9 0 18 6 21 15 7z m1782 -11 c-3 -11 -1 -20 4 -20 5 0 9 -4 9 -10 0
-5 -21 -7 -49 -3 l-49 6 -6 -39 c-8 -46 -26 -81 -26 -51 0 10 -4 15 -10 12 -5
-3 -10 -1 -10 4 0 6 7 11 15 11 9 0 17 14 21 39 6 39 6 39 46 34 34 -5 40 -3
45 16 3 11 8 21 10 21 3 0 3 -9 0 -20z m-158 -23 c-9 -7 -18 -19 -22 -27 -4
-10 -6 -8 -6 8 -1 12 -7 22 -13 22 -7 1 -2 7 12 15 30 16 55 1 29 -18z m-1354
13 c3 -5 1 -10 -4 -10 -6 0 -11 5 -11 10 0 6 2 10 4 10 3 0 8 -4 11 -10z m610
0 c-3 -5 -1 -10 6 -10 6 0 0 -9 -15 -21 -16 -13 -33 -18 -44 -14 -15 6 -13 10
13 31 31 25 51 32 40 14z m-1733 -44 c14 -21 8 -34 -21 -44 -33 -12 -71 -5
-71 12 2 43 68 67 92 32z m352 13 c10 -10 13 -64 5 -87 -8 -22 -13 -23 -121
-20 l-113 3 -6 40 -6 40 -2 -42 c-1 -35 -4 -43 -20 -43 -25 0 -30 8 -37 64
l-7 46 32 0 c18 0 31 -5 31 -12 0 -8 4 -7 10 3 8 13 28 16 119 15 60 -1 112
-4 115 -7z m150 -10 c32 -25 32 -36 4 -66 -28 -30 -72 -30 -92 -1 -21 30 -20
44 4 68 26 26 51 25 84 -1z m996 17 c0 -2 -9 -6 -20 -9 -11 -3 -18 -1 -14 4 5
9 34 13 34 5z m10 -20 c0 -2 -9 -6 -20 -9 -11 -3 -18 -1 -14 4 5 9 34 13 34 5z
m144 -2 c12 -5 13 -9 3 -19 -8 -9 -16 -10 -24 -3 -26 21 -12 35 21 22z m-1037
-26 c-3 -8 -6 -5 -6 6 -1 11 2 17 5 13 3 -3 4 -12 1 -19z m1853 -30 c-18 -7
-55 -58 -43 -58 5 0 3 -4 -3 -8 -6 -4 -16 -27 -22 -52 l-11 -45 5 55 c3 30 7
65 10 76 4 16 0 23 -16 27 -13 3 -19 10 -15 17 5 8 11 8 21 -1 11 -9 14 -9 14
0 0 7 4 10 9 6 6 -3 15 1 22 8 11 11 15 11 29 -2 14 -15 14 -17 0 -23z m-1590
28 c0 -3 -4 -8 -10 -11 -5 -3 -10 -1 -10 4 0 6 5 11 10 11 6 0 10 -2 10 -4z
m843 -136 c33 -66 62 -120 65 -120 13 0 34 17 32 26 -1 5 3 10 10 12 21 7 4
-23 -23 -40 -29 -19 -52 -24 -43 -9 3 4 -13 46 -36 92 -67 135 -77 159 -70
159 4 0 33 -54 65 -120z m502 109 c11 -16 1 -19 -13 -3 -7 8 -8 14 -3 14 5 0
13 -5 16 -11z m65 -25 c0 -16 -5 -24 -12 -21 -20 6 -18 47 3 47 5 0 9 -12 9
-26z m-890 -41 c0 -26 -11 -35 -30 -23 -11 7 -11 13 0 40 14 34 30 25 30 -17z
m1275 27 c-3 -5 -14 -10 -23 -9 -14 0 -13 2 3 9 27 11 27 11 20 0z m-79 -67
c-12 -75 -27 -117 -37 -102 -7 12 -9 12 -9 0 0 -8 -2 -12 -4 -10 -6 5 18 122
28 137 16 26 28 11 22 -25z m-2346 1 c0 -8 -9 -14 -20 -14 -22 0 -26 10 -8 28
13 13 28 7 28 -14z m1075 16 c3 -5 1 -10 -4 -10 -6 0 -11 5 -11 10 0 6 2 10 4
10 3 0 8 -4 11 -10z m1169 -67 c-3 -32 -13 -69 -21 -83 l-14 -25 6 30 c3 17
11 54 17 83 13 69 21 66 12 -5z m-2884 -9 c-5 -20 -11 -38 -13 -41 -3 -3 -29
-5 -59 -5 -38 1 -56 6 -65 18 -19 27 -17 30 39 56 41 20 59 23 79 16 24 -8 26
-12 19 -44z m2665 37 c10 -17 -12 -21 -25 -6 -10 12 -10 15 3 15 9 0 18 -4 22
-9z m112 -73 c-3 -7 -5 -2 -5 12 0 14 2 19 5 13 2 -7 2 -19 0 -25z m-2317 -2
c0 -8 6 -16 13 -19 6 -2 9 -7 5 -11 -3 -4 -18 0 -33 10 -20 13 -23 19 -13 25
19 13 28 11 28 -5z m1370 -30 c0 -7 -7 -13 -15 -13 -17 0 -17 0 -9 21 7 18 24
12 24 -8z m951 5 c15 24 10 -34 -6 -61 -8 -14 -15 -20 -15 -15 -1 6 -5 1 -10
-10 -7 -17 -9 -17 -9 -2 -1 17 -21 22 -68 18 -13 -1 -23 3 -23 9 0 5 5 10 11
10 5 0 7 5 4 10 -3 6 1 10 10 10 9 0 14 -4 11 -8 -3 -5 12 -6 32 -3 30 5 38
11 41 31 2 14 6 19 9 11 4 -11 6 -11 13 0z m-1037 -16 c-4 -9 3 -19 20 -26 14
-7 23 -16 20 -21 -3 -5 -1 -14 5 -21 12 -15 32 -67 26 -67 -2 0 -12 14 -20 31
-9 17 -29 35 -47 41 -18 6 -25 13 -19 18 16 9 2 40 -18 40 -14 0 -14 2 -1 10
22 14 40 12 34 -5z m261 6 c17 -7 16 -9 -9 -15 -16 -4 -31 -5 -34 -1 -3 3 1 5
9 6 8 0 6 4 -6 9 l-20 9 20 0 c11 0 29 -4 40 -8z m215 -75 c0 -6 5 -4 10 4 5
8 10 11 10 5 0 -18 -15 -34 -26 -27 -6 4 -14 21 -18 37 -6 28 -5 29 9 11 8
-11 15 -25 15 -30z m633 24 c-3 -11 -7 -20 -9 -20 -2 0 -4 9 -4 20 0 11 4 20
9 20 5 0 7 -9 4 -20z m-970 -7 c18 -20 58 -110 60 -134 1 -9 7 -15 14 -12 8 3
13 -2 13 -12 0 -12 6 -16 19 -12 18 4 18 2 8 -17 -24 -42 -52 -43 -44 0 2 13
0 22 -6 21 -5 -1 -31 40 -57 91 -44 85 -47 118 -7 75z m392 -3 c-3 -5 -11 -10
-16 -10 -6 0 -7 5 -4 10 3 6 11 10 16 10 6 0 7 -4 4 -10z m665 -8 c0 -10 -7
-19 -15 -19 -8 0 -15 9 -15 19 0 10 7 18 15 18 8 0 15 -8 15 -18z m-104 -55
c-6 -32 -9 -34 -43 -33 -35 1 -37 -1 -55 -53 -20 -57 -46 -86 -62 -70 -6 5
-18 9 -28 9 -27 0 -22 19 10 31 49 20 56 25 63 52 5 20 3 30 -9 37 -15 8 -14
9 5 10 12 0 23 6 26 13 3 9 8 9 18 1 8 -6 24 -11 35 -12 17 0 23 7 28 30 3 17
9 28 12 25 4 -3 4 -21 0 -40z m-766 20 c0 -10 -10 -12 -32 -8 -32 4 -32 5 -8
12 37 11 40 10 40 -4z m-2506 -25 c9 -15 -9 -27 -41 -30 -24 -3 -33 1 -33 11
0 23 62 38 74 19z m2192 -17 c4 -8 7 -26 8 -39 0 -13 4 -22 8 -20 10 6 20 -34
12 -47 -4 -7 -3 -9 3 -6 14 9 37 -43 24 -56 -5 -5 -19 9 -36 40 -16 26 -34 57
-40 69 -14 21 -9 74 6 74 6 0 12 -7 15 -15z m321 -17 c-3 -7 -5 -2 -5 12 0 14
2 19 5 13 2 -7 2 -19 0 -25z m191 6 c4 2 8 -7 8 -20 2 -31 -2 -30 -21 6 -17
32 -20 55 -4 27 6 -9 13 -16 17 -13z m-2578 6 c0 -5 -4 -10 -10 -10 -5 0 -10
5 -10 10 0 6 5 10 10 10 6 0 10 -4 10 -10z m2975 0 c-28 -12 -45 -12 -45 0 0
6 15 10 33 9 27 0 29 -2 12 -9z m-806 -57 c16 -46 40 -75 54 -66 6 3 7 1 3 -5
-4 -7 -3 -12 2 -12 6 0 8 -8 5 -18 -6 -23 -94 -56 -105 -39 -7 11 26 32 45 29
4 -1 6 1 5 5 0 5 2 16 7 26 5 12 1 25 -12 40 -17 18 -43 76 -43 95 0 16 28
-23 39 -55z m-769 -7 c0 -19 5 -38 10 -41 13 -8 13 -52 0 -60 -15 -9 10 -43
37 -50 25 -6 27 -12 14 -48 -10 -26 -66 -53 -76 -36 -4 5 -3 9 2 9 21 1 36 19
26 32 -6 7 -15 54 -22 104 -14 111 -14 124 -1 124 6 0 10 -15 10 -34z m999 7
c0 -25 -1 -25 -8 -8 -5 11 -7 23 -4 28 8 14 13 7 12 -20z m941 5 c10 -6 -1 -6
-30 -2 -25 3 -49 10 -54 15 -12 11 64 -1 84 -13z m-460 -62 c-9 -25 -54 -55
-66 -43 -3 3 12 21 33 40 21 20 39 34 41 33 1 -2 -2 -15 -8 -30z m341 4 c28 0
23 -19 -6 -26 -14 -3 -32 -19 -40 -35 -10 -18 -20 -26 -30 -23 -18 7 -18 4 2
45 22 45 47 71 51 52 2 -7 12 -13 23 -13z m-306 11 c3 -5 1 -12 -5 -16 -5 -3
-10 1 -10 9 0 18 6 21 15 7z m-531 -71 c45 10 37 -2 -13 -19 -29 -9 -36 -8
-47 7 -7 9 -14 13 -14 7 0 -5 -4 -4 -9 4 -5 8 -7 21 -3 29 4 12 10 10 26 -11
19 -24 25 -25 60 -17z m685 -37 c-13 -20 -25 -31 -27 -25 -2 7 6 24 17 38 12
15 22 34 22 43 1 13 2 13 6 -2 2 -9 -6 -34 -18 -54z m-2889 42 c10 -12 8 -20
-12 -44 -26 -33 -68 -57 -68 -40 0 14 53 98 61 99 4 0 12 -7 19 -15z m-780
-10 c0 -17 -30 -31 -75 -37 -44 -5 -46 26 -3 39 50 16 78 15 78 -2z m2677 -12
c-15 -16 -17 -16 -17 -1 0 9 6 18 13 21 20 7 22 -2 4 -20z m217 1 c8 -3 20
-21 27 -41 20 -60 -11 -57 -36 4 -20 48 -20 48 9 37z m-2570 -16 c-29 -49 -50
-68 -73 -68 l-26 1 28 22 c25 21 39 45 17 32 -5 -3 -10 -4 -10 0 0 7 39 23 58
24 8 1 10 -4 6 -11z m3263 -23 c-7 -16 -37 -21 -37 -5 0 10 32 31 39 25 2 -2
1 -11 -2 -20z m-581 -21 c9 -21 11 -40 7 -43 -5 -3 -26 -16 -46 -29 -20 -13
-37 -27 -37 -32 0 -4 12 -15 26 -25 21 -14 31 -15 51 -6 13 6 29 8 35 5 6 -4
8 -2 5 3 -4 6 0 14 9 17 8 3 12 2 9 -4 -3 -6 0 -10 7 -10 7 0 -4 -11 -25 -24
-35 -21 -37 -25 -23 -39 9 -9 16 -19 16 -22 0 -11 -72 37 -100 67 -31 32 -42
34 -61 12 -15 -18 -2 -31 45 -41 23 -5 25 -8 12 -15 -9 -5 -23 -5 -33 0 -10 5
-35 12 -55 16 -39 7 -53 26 -20 26 11 0 27 9 36 19 17 19 17 20 -3 31 -12 6
-26 8 -31 5 -21 -13 -21 20 1 38 18 14 24 16 28 5 6 -19 33 -37 56 -37 11 0
35 13 54 29 31 26 33 31 23 59 -15 43 -4 39 14 -5z m514 -19 c-11 -13 -9 -20
14 -44 14 -15 23 -31 19 -36 -5 -4 -2 -5 5 0 18 10 93 -62 85 -81 -3 -8 0 -14
6 -14 6 0 11 5 11 10 0 6 5 10 10 10 11 0 14 -50 3 -51 -5 0 -16 -2 -26 -4
-13 -2 -16 1 -12 14 3 11 -3 25 -15 36 -16 14 -18 21 -8 28 9 6 7 7 -6 3 -13
-5 -33 5 -66 33 -37 31 -50 37 -59 28 -22 -21 -1 46 22 70 22 25 38 23 17 -2z
m130 -10 c19 -19 30 -35 26 -35 -12 0 -76 51 -76 61 0 17 16 9 50 -26z m-1004
13 c4 -6 0 -16 -9 -23 -23 -17 -22 -21 16 -36 50 -20 85 -49 129 -108 28 -37
37 -56 29 -59 -9 -3 -10 -7 -3 -11 17 -10 -2 -33 -21 -25 -9 3 -14 10 -11 15
3 5 -7 4 -21 -1 -37 -14 -58 -13 -52 3 3 8 -1 14 -9 14 -10 0 -12 -6 -8 -16 4
-9 9 -27 12 -41 5 -25 5 -25 -15 -5 -14 14 -17 22 -9 27 7 5 7 8 -3 8 -8 0
-11 6 -7 15 7 19 -54 81 -64 64 -13 -19 -21 57 -14 125 6 60 9 66 30 66 12 0
26 -5 30 -12z m444 -8 c0 -5 -2 -10 -4 -10 -3 0 -8 5 -11 10 -3 6 -1 10 4 10
6 0 11 -4 11 -10z m-335 -22 c31 -26 16 -40 -26 -25 -28 11 -36 26 -22 40 11
11 22 8 48 -15z m-421 -4 c11 -28 7 -35 -18 -28 -13 3 -27 1 -30 -5 -12 -18
-36 -12 -36 9 0 11 5 20 11 20 6 0 9 -7 5 -15 -3 -8 -2 -15 3 -15 5 0 12 11
15 25 7 28 40 34 50 9z m-96 -45 c3 -12 2 -12 -6 0 -7 9 -12 10 -16 2 -10 -15
-23 -14 -29 3 -4 11 1 14 21 12 14 -2 28 -9 30 -17z m920 -4 c-3 -3 -9 2 -12
12 -6 14 -5 15 5 6 7 -7 10 -15 7 -18z m-1483 -15 c3 -5 12 -7 19 -4 8 3 17 1
21 -5 3 -6 17 -11 30 -11 13 0 25 -5 27 -10 2 -6 12 -12 23 -14 29 -6 161 -53
182 -65 29 -17 -3 -13 -78 9 -38 12 -69 24 -69 28 0 14 -95 36 -141 34 -39 -2
-47 0 -52 17 -2 11 -2 22 1 25 9 9 30 7 37 -4z m480 -8 c-3 -3 -11 0 -18 7 -9
10 -8 11 6 5 10 -3 15 -9 12 -12z m278 3 c1 -5 -6 -11 -15 -13 -11 -2 -18 3
-18 13 0 17 30 18 33 0z m-2453 -4 c0 -13 -21 -19 -45 -12 -18 4 -18 6 5 12
36 10 40 10 40 0z m-108 -13 c-9 -9 -15 -9 -24 0 -9 9 -7 12 12 12 19 0 21 -3
12 -12z m4003 -21 c-20 -28 -19 -47 2 -47 25 0 12 -8 -24 -13 -38 -6 -45 11
-13 31 11 7 20 23 20 37 0 17 4 23 15 19 13 -5 13 -8 0 -27z m88 16 c-7 -2
-21 -2 -30 0 -10 3 -4 5 12 5 17 0 24 -2 18 -5z m-2383 -40 c0 -7 8 -22 18
-32 9 -10 44 -53 77 -95 33 -41 67 -75 75 -75 45 3 62 -2 57 -15 -3 -8 -1 -17
6 -19 9 -3 8 -9 -3 -22 -13 -16 -11 -20 19 -46 19 -15 47 -31 62 -34 29 -7 62
-35 40 -35 -7 0 -27 -11 -44 -24 -18 -13 -41 -22 -52 -20 -25 4 -48 -17 -81
-75 -15 -25 -29 -48 -31 -50 -12 -15 -59 57 -93 144 -34 89 -38 106 -29 138 5
20 21 45 35 56 21 16 23 23 15 40 -10 19 -13 19 -61 3 -41 -13 -55 -14 -70 -4
-11 6 -26 9 -35 6 -8 -3 -15 -1 -15 5 0 6 6 10 13 9 7 -2 12 8 12 27 0 23 -6
31 -25 36 -14 4 -19 7 -12 8 7 1 10 6 7 11 -3 6 1 10 9 10 9 0 16 -4 16 -10 0
-11 32 -1 42 14 15 22 7 29 -12 11 -37 -33 -31 -9 7 31 36 36 52 39 53 7z
m-165 -34 c-8 -12 -55 -12 -55 0 0 10 39 20 53 13 4 -2 5 -8 2 -13z m50 11 c3
-5 1 -10 -4 -10 -6 0 -11 5 -11 10 0 6 2 10 4 10 3 0 8 -4 11 -10z m-1605 -10
c-19 -13 -30 -13 -30 0 0 6 10 10 23 10 18 0 19 -2 7 -10z m3517 -22 c-3 -8
-6 -5 -6 6 -1 11 2 17 5 13 3 -3 4 -12 1 -19z m-235 -4 c11 -6 -11 -9 -69 -9
-90 0 -89 1 -131 -61 -11 -17 -12 -17 -6 6 4 14 7 32 7 40 0 31 30 41 107 37
42 -2 83 -8 92 -13z m-522 -4 c-19 -13 -30 -13 -30 0 0 6 10 10 23 10 18 0 19
-2 7 -10z m898 1 c-68 -10 -71 -21 -6 -21 38 0 58 4 61 14 3 8 15 12 31 9 16
-3 23 -10 19 -19 -4 -12 5 -13 53 -8 33 3 65 8 72 10 11 3 42 -17 42 -28 0 -2
-28 -4 -63 -5 -38 -1 -57 1 -48 6 9 6 -5 8 -35 5 -27 -2 -57 -3 -67 -4 -10 0
-15 -4 -12 -10 4 -6 -9 -10 -32 -10 -28 0 -34 -3 -23 -10 20 -13 79 -13 171 1
44 7 85 8 95 4 14 -7 5 -10 -36 -16 -30 -3 -91 -12 -135 -18 -44 -7 -102 -15
-130 -18 -27 -3 -53 -10 -56 -15 -9 -14 -32 1 -25 17 3 8 -2 11 -15 8 -12 -3
-19 0 -19 8 0 11 -3 11 -11 -1 -7 -11 -8 -6 -4 19 5 23 4 31 -4 27 -7 -5 -11
1 -11 14 0 18 4 21 28 16 18 -4 37 0 57 14 22 15 45 20 90 19 l60 -2 -47 -6z
m-1438 -15 c28 -10 31 -13 15 -17 -11 -3 -36 3 -55 12 -42 21 -14 25 40 5z
m574 -1 c-4 -8 -8 -15 -10 -15 -2 0 -4 7 -4 15 0 8 4 15 10 15 5 0 7 -7 4 -15z
m-764 -10 c0 -2 -7 -5 -15 -9 -9 -3 -15 0 -15 9 0 9 6 12 15 9 8 -4 15 -7 15
-9z m-608 -54 c30 -11 67 -47 68 -67 1 -31 -132 -18 -157 15 -7 9 -12 11 -13
4 0 -17 40 -43 68 -43 13 0 20 -4 17 -10 -3 -5 3 -10 14 -10 12 0 21 5 21 11
0 15 43 7 48 -10 3 -8 0 -11 -6 -7 -14 8 -62 -3 -62 -14 0 -12 73 -7 82 5 4 6
8 2 8 -7 0 -10 7 -18 15 -18 7 0 18 -8 24 -17 8 -15 10 -12 9 15 -1 18 5 40
13 47 12 12 14 5 14 -55 0 -57 -2 -65 -11 -47 -11 20 -13 19 -23 -18 -6 -22
-11 -46 -11 -52 0 -7 -4 -13 -10 -13 -5 0 -10 -7 -10 -15 0 -8 -4 -15 -10 -15
-5 0 -7 -7 -4 -15 4 -8 1 -15 -6 -15 -6 0 -9 -8 -6 -18 7 -22 -8 -47 -23 -38
-6 4 -11 0 -11 -8 0 -9 5 -16 10 -16 6 0 10 -4 10 -9 0 -5 -14 -3 -30 6 -17 8
-36 12 -43 10 -7 -3 -5 -6 6 -6 21 -1 22 -17 1 -39 -15 -15 -16 -15 -10 5 5
16 1 22 -15 26 -15 4 -20 11 -15 23 5 13 4 15 -7 5 -11 -8 -23 -7 -53 6 -28
12 -34 18 -21 21 29 6 19 22 -15 22 -26 0 -30 -3 -18 -11 12 -9 12 -10 -3 -5
-10 3 -24 6 -30 6 -7 0 -6 4 3 10 19 12 1 46 -24 44 -19 -2 -19 1 -5 28 8 14
8 23 0 31 -26 26 -3 107 30 107 5 0 9 10 9 23 0 13 16 40 35 60 19 20 35 41
35 45 0 5 14 23 32 41 31 32 33 32 41 13 5 -12 23 -26 39 -31z m1498 28 c0 -5
9 -9 20 -9 13 0 18 -5 14 -15 -5 -11 -11 -12 -25 -4 -10 5 -19 6 -19 2 0 -4
-7 1 -15 11 -8 11 -15 15 -15 8 0 -6 -7 -9 -15 -6 -8 4 -15 10 -15 15 0 4 7 6
15 3 8 -4 15 -2 15 4 0 6 9 8 20 5 11 -3 20 -9 20 -14z m-480 0 c0 -17 -29
-41 -46 -37 -13 2 -12 7 6 26 22 24 40 29 40 11z m360 -9 c8 -5 11 -10 5 -10
-5 0 -17 5 -25 10 -8 5 -10 10 -5 10 6 0 17 -5 25 -10z m217 -12 c-3 -8 -6 -5
-6 6 -1 11 2 17 5 13 3 -3 4 -12 1 -19z m-2292 -77 c-3 -6 -11 -11 -16 -11 -5
0 -4 6 3 14 14 16 24 13 13 -3z m-99 -58 c-11 -11 -19 6 -11 24 8 17 8 17 12
0 3 -10 2 -21 -1 -24z m293 2 c10 -6 10 -9 1 -15 -12 -8 3 -30 58 -88 37 -39
73 -102 65 -115 -5 -9 -4 -9 8 0 12 10 17 8 27 -7 15 -24 1 -33 -32 -20 -16 6
-24 15 -20 24 6 15 -14 61 -23 53 -2 -3 0 -15 7 -26 14 -26 5 -27 -27 -1 -14
11 -20 20 -13 20 6 0 0 14 -14 31 -14 17 -26 38 -26 48 0 10 -18 37 -40 61
-22 24 -40 44 -40 46 0 5 58 -4 69 -11z m-256 -65 c-6 -32 -7 -32 -15 -11 -5
15 -4 29 3 38 17 19 20 11 12 -27z m-63 -24 c0 -3 -4 -8 -10 -11 -5 -3 -10 -1
-10 4 0 6 5 11 10 11 6 0 10 -2 10 -4z m-230 -20 c0 -3 -4 -8 -10 -11 -5 -3
-10 -1 -10 4 0 6 5 11 10 11 6 0 10 -2 10 -4z m254 -11 c3 -8 1 -15 -4 -15 -6
0 -10 7 -10 15 0 8 2 15 4 15 2 0 6 -7 10 -15z m49 8 c-7 -2 -19 -2 -25 0 -7
3 -2 5 12 5 14 0 19 -2 13 -5z m1036 -101 c12 -18 27 -30 32 -27 8 6 13 -8 10
-27 0 -5 4 -8 9 -8 6 0 10 -4 10 -10 0 -5 12 -23 27 -38 29 -32 36 -77 21
-129 -9 -31 -44 -54 -57 -37 -3 5 -13 9 -21 9 -8 0 -16 10 -18 23 -2 13 -10
26 -18 29 -9 3 -12 13 -8 25 4 14 2 18 -5 14 -7 -5 -11 11 -12 51 -2 82 -5
113 -14 153 -7 31 -7 33 6 20 8 -8 25 -30 38 -48z m450 49 c12 -8 13 -14 3
-35 -13 -29 -24 -32 -41 -12 -9 11 -10 20 -1 35 12 23 18 25 39 12z m-1359
-90 c6 -21 4 -28 -6 -28 -8 0 -13 5 -11 11 3 6 -2 26 -9 45 -8 18 -14 36 -14
39 0 14 32 -41 40 -67z m1220 38 c0 -23 -27 -36 -42 -21 -5 5 -7 19 -4 30 8
26 46 18 46 -9z m-841 -18 c9 -6 4 -10 -17 -13 -16 -2 -38 2 -48 9 -16 12 -14
13 17 13 19 0 40 -4 48 -9z m981 -22 c0 -5 -4 -9 -10 -9 -5 0 -10 7 -10 16 0
8 5 12 10 9 6 -3 10 -10 10 -16z m554 15 c22 -9 20 -41 -4 -54 -18 -10 -20 -8
-20 25 0 38 0 38 24 29z m-370 -20 c5 -12 2 -15 -10 -10 -11 4 -15 2 -11 -7 3
-8 -3 -13 -14 -13 -23 0 -23 1 -1 25 21 24 28 25 36 5z m84 -34 c-9 -13 -16
-16 -23 -9 -7 7 -5 13 5 19 24 15 31 11 18 -10z m-1608 -16 c0 -8 -4 -12 -10
-9 -5 3 -10 10 -10 16 0 5 5 9 10 9 6 0 10 -7 10 -16z m1445 6 c3 -5 1 -10 -4
-10 -6 0 -11 5 -11 10 0 6 2 10 4 10 3 0 8 -4 11 -10z m730 -10 c-2 -29 -12
-35 -20 -11 -3 12 -11 21 -18 21 -8 0 -8 -3 1 -12 9 -9 7 -14 -6 -24 -9 -8
-21 -13 -27 -13 -5 0 -2 6 8 13 12 9 14 16 8 21 -21 13 -10 25 22 25 27 0 33
-4 32 -20z m39 2 c8 -14 -5 -50 -21 -56 -9 -4 -11 -2 -6 7 4 6 6 22 4 35 -2
21 12 31 23 14z m-765 -26 c7 -8 23 -17 36 -20 27 -7 34 -31 11 -39 -7 -3 -19
0 -25 6 -9 9 -16 9 -31 0 -16 -11 -20 -9 -25 8 -4 11 -2 26 5 34 8 10 8 14 -2
18 -9 4 -8 6 3 6 9 1 22 -5 28 -13z m274 8 c20 -7 9 -44 -13 -44 -22 0 -35 31
-18 42 16 9 13 9 31 2z m205 -14 c1 -10 -5 -16 -18 -17 -14 -1 -20 4 -20 18 0
24 33 23 38 -1z m-93 -41 c0 -17 -43 -25 -58 -10 -7 7 -6 15 2 25 15 18 56 6
56 -15z m55 10 c0 -5 -4 -9 -10 -9 -5 0 -10 7 -10 16 0 8 5 12 10 9 6 -3 10
-10 10 -16z m-554 -52 c1 -28 -11 -55 -21 -45 -4 3 -1 16 5 28 9 16 8 25 -2
37 -11 14 -11 15 2 11 8 -2 15 -16 16 -31z m2209 -15 c-3 -3 -11 0 -18 7 -9
10 -8 11 6 5 10 -3 15 -9 12 -12z m-2284 -13 c24 -24 17 -35 -28 -48 -24 -7
-32 -5 -41 10 -17 27 -15 34 11 47 31 15 34 15 58 -9z m322 7 c3 -7 -3 -20
-14 -29 -18 -16 -19 -16 -19 4 0 11 5 17 10 14 6 -3 10 1 10 9 0 20 6 21 13 2z
m727 4 c-20 -13 -40 -13 -40 0 0 6 12 10 28 10 21 0 24 -2 12 -10z m-690 -10
c0 -5 -5 -10 -11 -10 -5 0 -7 5 -4 10 3 6 8 10 11 10 2 0 4 -4 4 -10z m1130
-19 c0 -6 -4 -13 -10 -16 -5 -3 -10 1 -10 9 0 9 5 16 10 16 6 0 10 -4 10 -9z
m-430 -41 c0 -5 -18 -10 -40 -10 -22 0 -40 5 -40 10 0 6 18 10 40 10 22 0 40
-4 40 -10z"/>
<path d="M7308 2643 c7 -3 16 -2 19 1 4 3 -2 6 -13 5 -11 0 -14 -3 -6 -6z"/>
<path d="M7138 2483 c7 -3 16 -2 19 1 4 3 -2 6 -13 5 -11 0 -14 -3 -6 -6z"/>
<path d="M6961 1764 c0 -11 3 -14 6 -6 3 7 2 16 -1 19 -3 4 -6 -2 -5 -13z"/>
<path d="M6968 1715 c2 -15 0 -25 -7 -25 -18 0 -5 -45 14 -49 14 -2 16 1 10
15 -4 11 -7 34 -6 52 1 17 -2 32 -7 32 -5 0 -7 -11 -4 -25z"/>
<path d="M7128 2163 c6 -2 18 -2 25 0 6 3 1 5 -13 5 -14 0 -19 -2 -12 -5z"/>
<path d="M6550 1890 c-9 -6 -10 -10 -3 -10 6 0 15 5 18 10 8 12 4 12 -15 0z"/>
<path d="M6624 1695 c-10 -8 -14 -15 -8 -15 6 0 17 7 24 15 16 19 9 19 -16 0z"/>
<path d="M7145 910 c10 -11 20 -20 23 -20 3 0 -3 9 -13 20 -10 11 -20 20 -23
20 -3 0 3 -9 13 -20z"/>
<path d="M4839 659 c-6 -12 -7 -25 -2 -29 13 -12 75 -21 68 -10 -3 6 -15 10
-25 10 -22 0 -39 22 -22 28 14 4 16 22 2 22 -5 0 -14 -9 -21 -21z"/>
<path d="M4835 550 c3 -5 1 -10 -4 -10 -6 0 -11 -7 -11 -17 0 -14 2 -14 20 2
24 22 26 35 4 35 -8 0 -12 -4 -9 -10z"/>
<path d="M4900 502 c0 -6 8 -13 18 -17 27 -12 62 -15 62 -5 0 8 -8 11 -62 26
-10 3 -18 1 -18 -4z"/>
<path d="M4720 490 c0 -5 5 -10 10 -10 6 0 10 5 10 10 0 6 -4 10 -10 10 -5 0
-10 -4 -10 -10z"/>
<path d="M4710 447 c0 -13 5 -28 12 -35 9 -9 9 -12 0 -12 -7 0 -12 -4 -12 -10
0 -16 17 -12 24 6 4 9 1 23 -6 32 -10 12 -10 16 0 19 17 6 15 23 -3 23 -9 0
-15 -9 -15 -23z"/>
<path d="M4830 425 c14 -8 30 -14 35 -14 6 0 -1 6 -15 14 -14 8 -29 14 -35 14
-5 0 1 -6 15 -14z"/>
<path d="M4820 392 c0 -5 8 -12 18 -16 9 -3 23 -9 30 -12 6 -3 12 -1 12 4 0 5
-8 12 -17 16 -10 3 -24 9 -30 12 -7 3 -13 1 -13 -4z"/>
<path d="M4740 386 c0 -2 7 -6 15 -10 8 -3 15 -1 15 4 0 6 -7 10 -15 10 -8 0
-15 -2 -15 -4z"/>
<path d="M4906 365 c4 -8 12 -15 20 -15 8 0 14 7 14 15 0 8 -9 15 -20 15 -13
0 -18 -5 -14 -15z"/>
<path d="M4716 362 c16 -14 64 -32 64 -24 0 4 -12 13 -27 20 -31 14 -52 16
-37 4z"/>
<path d="M4860 333 c8 -3 19 -11 23 -17 6 -7 7 -6 4 4 -2 8 -12 16 -23 17 -13
2 -15 1 -4 -4z"/>
<path d="M2258 3098 c9 -9 15 -9 24 0 9 9 7 12 -12 12 -19 0 -21 -3 -12 -12z"/>
<path d="M4020 3096 c0 -9 5 -16 10 -16 6 0 10 4 10 9 0 6 -4 13 -10 16 -5 3
-10 -1 -10 -9z"/>
<path d="M2240 3065 c13 -14 28 -25 33 -25 5 0 21 -9 36 -19 15 -11 49 -23 76
-28 59 -11 145 -5 145 9 0 6 -7 7 -15 4 -9 -3 -18 0 -21 7 -2 6 -20 12 -39 13
-19 0 -43 9 -54 18 -16 14 -29 17 -57 12 -22 -5 -34 -4 -30 2 3 5 -1 16 -10
23 -13 10 -17 10 -24 -2 -7 -11 -12 -11 -22 -1 -6 6 -19 12 -27 12 -10 0 -8
-7 9 -25z"/>
<path d="M6803 3069 c-7 -7 -40 -14 -85 -18 -22 -2 -3 -19 33 -31 39 -13 41
-13 65 15 13 15 24 29 24 30 0 9 -29 12 -37 4z"/>
<path d="M6891 3032 c-9 -16 -108 -48 -208 -67 -30 -6 -29 -7 2 -14 33 -7 135
10 189 33 29 12 56 41 56 60 0 14 -30 4 -39 -12z"/>
<path d="M5610 2971 c-49 -47 -54 -58 -35 -84 19 -27 17 -26 40 -4 10 10 25
15 34 12 10 -4 26 7 48 32 38 43 39 46 18 63 -29 24 -68 17 -105 -19z"/>
<path d="M5893 2962 c-7 -4 -10 -26 -9 -54 4 -53 11 -68 33 -68 15 0 15 2 0
18 -11 12 -13 22 -5 35 5 10 6 26 2 35 -4 9 -6 23 -5 30 2 14 0 14 -16 4z"/>
<path d="M6791 2931 c-19 -10 -29 -21 -24 -24 15 -9 73 15 73 30 0 17 -8 16
-49 -6z"/>
<path d="M6218 2913 c-45 -19 -47 -27 -10 -50 45 -28 82 -65 75 -77 -4 -7 -1
-6 8 1 10 8 16 34 17 78 l3 65 -28 -1 c-15 -1 -45 -8 -65 -16z"/>
<path d="M5607 2810 c-3 -11 -2 -22 3 -25 11 -7 33 22 25 35 -10 16 -22 12
-28 -10z"/>
<path d="M6680 2821 c0 -10 30 -24 37 -17 3 2 -5 9 -16 16 -12 6 -21 7 -21 1z"/>
<path d="M1670 2789 c0 -5 5 -7 10 -4 6 3 10 8 10 11 0 2 -4 4 -10 4 -5 0 -10
-5 -10 -11z"/>
<path d="M4985 2749 c-11 -17 -2 -18 19 -3 17 12 17 14 4 14 -9 0 -20 -5 -23
-11z"/>
<path d="M6610 2719 c0 -15 41 -81 47 -75 5 5 -35 86 -42 86 -3 0 -5 -5 -5
-11z"/>
<path d="M5850 2703 c-43 -6 -100 -26 -100 -34 0 -5 11 -16 24 -24 14 -9 29
-30 35 -46 13 -39 27 -37 41 6 6 19 15 35 18 35 7 0 32 48 32 62 0 8 -5 8 -50
1z"/>
<path d="M47 2661 c-44 -24 -48 -28 -42 -55 7 -38 14 -45 26 -23 6 9 16 17 23
17 8 0 31 7 52 16 32 13 35 17 21 25 -9 6 -17 16 -17 24 0 23 -13 22 -63 -4z"/>
<path d="M6450 2655 c-9 -11 -10 -19 -3 -26 8 -8 13 -5 18 11 9 28 2 35 -15
15z"/>
<path d="M6590 2645 c0 -5 5 -17 10 -25 6 -10 2 -24 -16 -47 -14 -18 -21 -33
-16 -33 5 0 12 -30 15 -67 5 -65 32 -165 62 -228 14 -30 15 -30 16 -5 1 14 1
29 0 34 -1 6 -4 24 -5 41 -2 18 -5 36 -9 41 -23 39 -26 176 -3 213 5 7 0 19
-11 29 -11 9 -25 26 -31 37 -6 11 -11 16 -12 10z"/>
<path d="M5255 2630 c28 -12 37 -12 30 0 -3 6 -16 10 -28 9 -21 0 -21 -1 -2
-9z"/>
<path d="M50 2582 c0 -12 40 -47 70 -62 24 -12 24 -11 -5 21 -43 48 -65 62
-65 41z"/>
<path d="M8670 2565 c0 -8 2 -15 4 -15 2 0 6 7 10 15 3 8 1 15 -4 15 -6 0 -10
-7 -10 -15z"/>
<path d="M5176 2474 c-9 -24 -4 -24 18 -3 16 16 17 19 4 19 -9 0 -19 -7 -22
-16z"/>
<path d="M4918 2443 c-16 -4 -33 -31 -25 -40 6 -6 57 19 57 28 0 11 -13 16
-32 12z"/>
<path d="M4905 2380 c3 -5 13 -10 21 -10 8 0 12 5 9 10 -3 6 -13 10 -21 10 -8
0 -12 -4 -9 -10z"/>
<path d="M4817 2360 c-3 -11 -1 -20 4 -20 5 0 9 2 9 4 0 2 3 11 6 20 3 9 2 16
-4 16 -5 0 -12 -9 -15 -20z"/>
<path d="M8479 2296 c-3 -3 -14 -7 -25 -9 -43 -8 -74 -20 -74 -27 0 -4 24 -18
54 -30 30 -12 57 -27 59 -34 3 -7 14 -16 25 -18 18 -5 22 0 27 35 6 31 4 43
-9 52 -8 7 -13 15 -9 18 3 4 1 7 -5 7 -5 0 -17 2 -24 5 -8 3 -16 3 -19 1z"/>
<path d="M5100 2274 c0 -12 52 -76 57 -70 3 3 -8 21 -26 41 -17 20 -31 33 -31
29z"/>
<path d="M4850 2254 c0 -8 5 -12 10 -9 6 4 8 11 5 16 -9 14 -15 11 -15 -7z"/>
<path d="M8561 2234 c0 -11 3 -14 6 -6 3 7 2 16 -1 19 -3 4 -6 -2 -5 -13z"/>
<path d="M8587 2224 c-6 -10 9 -42 16 -34 3 3 1 14 -3 24 -3 11 -9 15 -13 10z"/>
<path d="M9475 2170 c-3 -5 3 -10 15 -10 12 0 18 5 15 10 -3 6 -10 10 -15 10
-5 0 -12 -4 -15 -10z"/>
<path d="M1220 2150 c0 -5 5 -10 10 -10 6 0 10 5 10 10 0 6 -4 10 -10 10 -5 0
-10 -4 -10 -10z"/>
<path d="M9452 2129 c-14 -22 -7 -25 14 -5 8 8 11 17 6 20 -4 2 -13 -4 -20
-15z"/>
<path d="M1206 2078 c-3 -13 -6 -27 -6 -33 1 -15 30 27 30 42 0 22 -17 15 -24
-9z"/>
<path d="M9475 2031 c-2 -5 4 -11 15 -14 11 -3 20 -2 20 3 0 12 -28 21 -35 11z"/>
<path d="M6207 1977 c-9 -25 -10 -24 13 -30 11 -3 18 -1 14 4 -3 5 0 9 6 9 6
0 8 5 4 11 -5 8 -9 7 -14 -1 -6 -9 -9 -8 -12 6 -3 18 -4 18 -11 1z"/>
<path d="M6090 1930 c0 -5 7 -10 16 -10 8 0 12 5 9 10 -3 6 -10 10 -16 10 -5
0 -9 -4 -9 -10z"/>
<path d="M1869 1885 c-1 -16 -3 -38 -2 -48 0 -16 -2 -16 -19 0 -10 9 -18 11
-18 5 0 -16 43 -92 52 -92 14 0 14 87 -1 135 l-9 30 -3 -30z"/>
<path d="M4110 1900 c-8 -5 -39 -17 -68 -25 -29 -9 -50 -20 -47 -25 9 -15 101
-12 112 3 9 10 24 57 20 57 -1 0 -9 -5 -17 -10z"/>
<path d="M6129 1897 c-23 -18 -31 -47 -15 -53 12 -5 116 51 116 62 0 10 -86 2
-101 -9z"/>
<path d="M4158 1889 c10 -11 8 -15 -9 -24 -18 -10 -13 -14 46 -28 37 -9 71
-14 76 -11 21 13 6 34 -32 44 -23 6 -53 16 -68 21 -21 8 -24 8 -13 -2z"/>
<path d="M8324 1882 c-6 -4 -19 -22 -29 -39 -26 -44 -10 -62 37 -43 18 8 36
19 40 24 5 7 8 7 8 -1 0 -7 7 -10 15 -7 13 5 13 9 3 22 -10 12 -10 14 0 8 18
-11 15 1 -6 22 -19 19 -51 26 -68 14z"/>
<path d="M8425 1850 c-3 -5 -1 -10 4 -10 6 0 11 5 11 10 0 6 -2 10 -4 10 -3 0
-8 -4 -11 -10z"/>
<path d="M3786 1804 c-8 -22 -9 -21 19 -26 14 -3 28 -1 31 3 3 5 -2 9 -12 9
-13 0 -14 3 -4 15 10 12 9 15 -8 15 -11 0 -23 -7 -26 -16z"/>
<path d="M230 1795 c0 -8 2 -15 4 -15 2 0 11 -3 20 -6 23 -9 20 13 -4 26 -16
9 -20 8 -20 -5z"/>
<path d="M3750 1775 c-10 -12 -10 -15 1 -15 10 0 10 -3 1 -12 -8 -8 -15 -8
-27 2 -12 10 -15 10 -15 -2 0 -19 20 -38 40 -38 13 0 16 9 16 40 -1 22 -2 40
-2 40 -1 0 -7 -7 -14 -15z"/>
<path d="M0 1750 c0 -5 5 -10 10 -10 6 0 10 5 10 10 0 6 -4 10 -10 10 -5 0
-10 -4 -10 -10z"/>
<path d="M8261 1734 c0 -11 3 -14 6 -6 3 7 2 16 -1 19 -3 4 -6 -2 -5 -13z"/>
<path d="M169 1729 c-8 -4 -38 -6 -68 -2 -40 4 -52 3 -47 -5 4 -7 15 -12 24
-12 30 0 90 -49 118 -95 28 -48 39 -58 29 -25 -8 25 -13 66 -14 106 -1 34 -19
48 -42 33z"/>
<path d="M3528 1703 c7 -3 16 -2 19 1 4 3 -2 6 -13 5 -11 0 -14 -3 -6 -6z"/>
<path d="M3420 1691 c0 -6 4 -12 10 -16 5 -3 6 -13 3 -22 -4 -10 -2 -14 5 -10
6 4 13 -1 15 -10 4 -17 5 -17 6 0 0 9 5 17 10 17 5 0 12 -8 14 -17 4 -15 5
-15 6 -2 1 12 8 15 26 11 19 -3 25 0 25 14 0 12 -3 15 -8 7 -5 -8 -18 -9 -42
-3 -19 4 -27 8 -17 9 9 1 17 6 17 12 0 7 -10 9 -25 5 -14 -4 -25 -2 -25 4 0 5
-4 10 -10 10 -5 0 -10 -4 -10 -9z"/>
<path d="M8325 1680 c-8 -13 9 -20 24 -11 10 6 9 10 -3 14 -8 3 -18 2 -21 -3z"/>
<path d="M3640 1666 c0 -9 5 -16 10 -16 6 0 10 4 10 9 0 6 -4 13 -10 16 -5 3
-10 -1 -10 -9z"/>
<path d="M3720 1635 c-7 -9 -8 -15 -2 -15 5 0 12 7 16 15 3 8 4 15 2 15 -2 0
-9 -7 -16 -15z"/>
<path d="M8247 1643 c-4 -3 -7 -11 -7 -17 0 -6 5 -5 12 2 6 6 9 14 7 17 -3 3
-9 2 -12 -2z"/>
<path d="M3415 1621 c-6 -11 9 -23 19 -14 9 9 7 23 -3 23 -6 0 -12 -4 -16 -9z"/>
<path d="M235 1530 c3 -5 8 -10 11 -10 2 0 4 5 4 10 0 6 -5 10 -11 10 -5 0 -7
-4 -4 -10z"/>
<path d="M276 1462 c-5 -8 7 -115 20 -179 5 -25 2 -32 -11 -35 -16 -3 -15 -6
5 -28 l21 -25 -5 28 c-5 19 -2 27 8 27 30 0 27 47 -14 183 -11 38 -15 43 -24
29z"/>
<path d="M8212 1458 c-18 -18 -15 -28 8 -28 13 0 20 7 20 20 0 23 -10 26 -28
8z"/>
<path d="M4755 1441 c7 -13 75 -35 82 -27 3 3 -3 8 -13 11 -10 4 -27 11 -36
16 -23 12 -41 12 -33 0z"/>
<path d="M4736 1354 c-4 -10 -1 -14 6 -12 15 5 23 28 10 28 -5 0 -13 -7 -16
-16z"/>
<path d="M9475 1250 c-18 -20 -17 -20 8 -20 20 0 27 5 27 20 0 11 -4 20 -8 20
-5 0 -17 -9 -27 -20z"/>
<path d="M4932 1238 c-14 -14 -16 -68 -3 -68 8 0 27 42 31 67 2 13 -15 14 -28
1z"/>
<path d="M340 1166 c0 -8 5 -18 10 -21 6 -3 10 3 10 14 0 12 -4 21 -10 21 -5
0 -10 -6 -10 -14z"/>
<path d="M4870 1100 c0 -5 -7 -10 -16 -10 -8 0 -12 -4 -9 -10 12 -19 45 -11
45 10 0 11 -4 20 -10 20 -5 0 -10 -4 -10 -10z"/>
<path d="M61 1054 c0 -11 3 -14 6 -6 3 7 2 16 -1 19 -3 4 -6 -2 -5 -13z"/>
<path d="M8160 993 c0 -25 14 -44 41 -59 35 -17 38 -44 7 -44 -21 -1 -22 -1
-5 -11 10 -6 21 -9 23 -6 9 9 116 -57 135 -83 23 -31 16 -63 -17 -80 -13 -7
-21 -16 -19 -20 3 -5 10 -42 15 -84 8 -55 8 -81 0 -96 -12 -22 -21 -101 -18
-155 2 -62 -6 -166 -21 -270 -14 -90 -14 -85 9 -85 13 0 21 8 25 25 3 14 7 37
10 51 4 15 8 24 11 21 3 -2 1 -23 -4 -45 -6 -23 -7 -44 -4 -47 11 -10 535 -4
577 7 22 6 45 11 50 12 6 1 20 8 33 14 14 8 28 9 40 4 30 -16 72 -23 72 -12 0
5 -6 10 -14 10 -15 0 -29 27 -21 40 3 4 -3 11 -12 14 -9 4 -20 1 -24 -6 -6 -9
-11 -9 -24 2 -14 12 -18 12 -27 -1 -8 -12 -9 -12 -5 1 5 18 -21 39 -49 40 -31
0 -37 -12 -11 -24 36 -19 28 -42 -13 -38 -19 2 -42 8 -50 13 -13 8 -13 9 0 7
8 -2 15 2 15 7 0 6 -3 9 -7 8 -5 -2 -8 5 -8 15 0 10 -6 19 -14 19 -8 0 -12 -6
-9 -14 3 -7 -2 -13 -10 -13 -8 0 -17 5 -19 12 -3 8 -34 12 -94 13 -75 1 -89 3
-92 18 -2 10 3 17 11 17 8 0 17 7 21 15 9 23 -22 18 -34 -6 -7 -11 -9 -27 -6
-35 4 -11 -7 -13 -54 -12 -42 1 -56 5 -50 13 6 8 0 10 -20 9 -34 -2 -43 6 -34
30 7 18 43 13 56 -8 5 -8 8 -7 8 2 0 7 -7 15 -15 18 -8 4 -15 15 -15 25 0 11
-7 19 -17 19 -27 0 -45 -15 -41 -35 2 -10 -3 -20 -9 -22 -8 -3 -13 5 -13 21 0
14 -4 26 -10 26 -5 0 -10 -8 -10 -17 0 -9 -7 -24 -16 -34 -8 -9 -16 -26 -17
-37 0 -11 -4 -19 -9 -16 -4 2 -1 22 6 43 15 42 28 321 15 321 -5 0 -6 6 -3 14
3 8 12 12 21 9 13 -5 14 4 8 62 -7 61 -6 68 9 62 10 -4 15 -3 11 3 -4 6 8 10
27 10 59 0 62 7 54 113 -4 61 -3 98 4 102 5 3 10 13 10 21 0 20 -47 18 -58 -2
-14 -25 -65 -11 -57 15 7 22 -27 34 -73 25 -17 -3 -32 -1 -36 5 -4 5 -13 8
-20 5 -8 -3 -16 2 -19 13 -3 13 -5 12 -6 -6 -1 -21 -3 -23 -13 -10 -29 33 -78
72 -78 62z m297 -195 c-3 -8 -6 -5 -6 6 -1 11 2 17 5 13 3 -3 4 -12 1 -19z
m-27 2 c8 -5 11 -12 8 -16 -4 -3 -14 1 -23 10 -18 17 -9 21 15 6z m-20 -640
c0 -5 -5 -10 -11 -10 -5 0 -7 5 -4 10 3 6 8 10 11 10 2 0 4 -4 4 -10z m660
-77 c0 -5 -4 -14 -9 -22 -7 -10 -12 -11 -27 -1 -17 10 -17 11 -1 6 11 -3 20 0
23 9 6 16 14 20 14 8z m-70 -17 c0 -2 -7 -7 -16 -10 -8 -3 -12 -2 -9 4 6 10
25 14 25 6z m-130 -26 c0 -5 -5 -10 -11 -10 -5 0 -7 5 -4 10 3 6 8 10 11 10 2
0 4 -4 4 -10z"/>
<path d="M197 933 c-11 -10 -8 -43 3 -43 5 0 7 -7 4 -15 -4 -8 -2 -15 3 -15 6
0 25 -39 43 -87 19 -49 52 -119 74 -158 22 -38 50 -91 63 -117 12 -26 40 -64
61 -85 22 -21 52 -63 68 -93 16 -30 32 -56 37 -58 4 -2 7 -12 7 -22 0 -10 5
-22 10 -25 6 -3 10 -15 10 -26 0 -10 4 -19 8 -19 5 0 23 -38 41 -85 l33 -85
71 0 71 0 -31 33 c-17 17 -58 72 -91 122 -33 50 -75 105 -92 124 -18 19 -37
47 -42 63 -6 15 -14 28 -19 28 -5 0 -9 4 -9 8 0 5 6 9 13 9 7 0 23 -22 36 -48
15 -30 29 -45 37 -42 10 4 11 10 3 25 -6 12 -8 39 -4 65 6 42 5 44 -14 38 -12
-3 -21 -2 -21 3 0 6 5 12 12 14 7 3 6 12 -6 31 -10 14 -14 32 -10 38 5 8 3 9
-6 4 -10 -6 -12 -4 -7 7 7 19 -32 58 -51 51 -16 -6 -16 14 1 21 6 3 -1 4 -16
2 -16 -2 -35 3 -43 12 -14 14 -14 16 0 24 23 13 20 27 -4 21 -15 -4 -20 0 -20
13 -1 11 -21 39 -45 64 -25 25 -45 50 -45 55 0 6 -14 24 -30 40 -17 16 -42 49
-56 72 -24 42 -34 50 -47 36z m393 -553 c-4 -19 -8 -27 -9 -17 -1 9 -7 17 -13
17 -9 0 -8 4 2 10 13 9 13 10 0 11 -10 0 -8 3 5 8 11 5 21 8 22 7 1 -1 -2 -17
-7 -36z"/>
<path d="M4245 929 c-4 -6 -5 -12 -2 -15 2 -3 7 2 10 11 7 17 1 20 -8 4z"/>
<path d="M9370 906 c0 -8 6 -16 13 -19 9 -3 7 -9 -5 -24 -29 -32 -23 -74 13
-104 30 -25 33 -25 75 -11 49 16 61 36 14 22 -21 -6 -38 -5 -55 4 -25 13 -25
13 27 33 49 19 53 23 56 57 3 29 0 36 -15 36 -10 0 -25 -5 -33 -10 -10 -6 -22
-5 -35 4 -35 22 -55 26 -55 12z"/>
<path d="M3764 835 c11 -8 24 -15 30 -15 5 0 1 7 -10 15 -10 8 -23 14 -29 14
-5 0 -1 -6 9 -14z"/>
<path d="M3770 785 c0 -15 4 -24 10 -20 6 3 10 12 10 20 0 8 -4 17 -10 20 -6
4 -10 -5 -10 -20z"/>
<path d="M151 743 c0 -5 4 -17 9 -28 8 -18 9 -17 9 8 1 15 -3 27 -9 27 -5 0
-10 -3 -9 -7z"/>
<path d="M4419 715 c-1 -3 -2 -8 -3 -12 -1 -5 -4 -13 -8 -19 -8 -12 30 -33 49
-27 8 3 7 13 -5 34 -15 26 -30 37 -33 24z"/>
<path d="M8153 678 c-44 -22 -156 -128 -136 -128 7 0 32 18 57 39 25 22 59 47
74 57 16 9 34 25 40 35 15 23 16 23 -35 -3z"/>
<path d="M9410 683 c0 -20 36 -103 44 -103 3 0 16 4 30 10 23 8 25 14 23 60
-2 51 -10 63 -22 33 -6 -17 -7 -17 -16 0 -6 9 -21 17 -34 17 -17 0 -25 -6 -25
-17z"/>
<path d="M170 664 c0 -16 6 -54 13 -84 10 -40 13 -121 11 -300 -1 -151 1 -236
7 -222 18 45 28 191 24 347 -3 134 -7 170 -25 220 -26 72 -30 77 -30 39z"/>
<path d="M3680 680 c0 -5 5 -10 11 -10 5 0 7 5 4 10 -3 6 -8 10 -11 10 -2 0
-4 -4 -4 -10z"/>
<path d="M3620 650 c0 -5 7 -10 16 -10 8 0 12 5 9 10 -3 6 -10 10 -16 10 -5 0
-9 -4 -9 -10z"/>
<path d="M4410 615 c18 -19 36 -33 38 -30 7 6 -50 64 -62 65 -6 0 5 -16 24
-35z"/>
<path d="M3587 623 c-4 -3 -7 -13 -7 -21 0 -11 3 -12 13 -3 8 6 18 7 23 3 4
-4 2 1 -5 11 -15 19 -15 19 -24 10z"/>
<path d="M4380 590 c0 -5 5 -10 11 -10 5 0 7 5 4 10 -3 6 -8 10 -11 10 -2 0
-4 -4 -4 -10z"/>
<path d="M7960 576 c0 -8 -3 -23 -6 -33 -5 -12 -4 -15 3 -8 16 15 26 55 14 55
-6 0 -11 -6 -11 -14z"/>
<path d="M8125 482 c-41 -36 -109 -121 -103 -128 3 -2 36 29 73 71 69 77 84
105 30 57z"/>
<path d="M8180 415 c-32 -17 -98 -85 -83 -85 14 0 99 70 107 88 3 6 4 12 3 11
-1 -1 -13 -7 -27 -14z"/>
<path d="M7960 374 c0 -27 4 -43 10 -39 6 3 10 24 10 46 0 21 -4 39 -10 39 -5
0 -10 -21 -10 -46z"/>
<path d="M9468 374 c-9 -27 -15 -50 -13 -53 9 -8 55 22 55 36 0 7 -4 13 -9 13
-5 0 -11 12 -13 26 -3 22 -5 19 -20 -22z"/>
<path d="M1775 370 c3 -5 10 -10 16 -10 5 0 9 5 9 10 0 6 -7 10 -16 10 -8 0
-12 -4 -9 -10z"/>
<path d="M612 344 c3 -17 21 -21 26 -6 1 5 -4 12 -13 16 -11 4 -15 1 -13 -10z"/>
<path d="M626 294 c-9 -22 -8 -24 9 -24 8 0 15 -6 15 -12 0 -9 3 -9 9 1 6 9 5
21 -2 33 -14 22 -23 23 -31 2z"/>
<path d="M690 280 c0 -5 5 -10 11 -10 5 0 7 5 4 10 -3 6 -8 10 -11 10 -2 0 -4
-4 -4 -10z"/>
<path d="M7256 281 c-2 -3 -6 -60 -7 -125 -3 -122 -13 -154 -43 -143 -14 5
-16 25 -17 134 0 82 -4 118 -9 101 -8 -26 -14 -139 -11 -210 l1 -38 66 0 c65
0 66 0 60 25 -5 20 -3 23 11 18 10 -4 14 -2 10 4 -4 6 -4 13 0 16 5 2 2 2 -4
1 -12 -3 -18 16 -14 40 1 4 -5 13 -13 20 -22 17 -7 92 18 88 11 -2 15 1 11 7
-3 6 1 11 11 11 15 0 15 2 2 22 -15 22 -64 42 -72 29z"/>
<path d="M700 221 c0 -6 4 -13 10 -16 6 -3 7 1 4 9 -7 18 -14 21 -14 7z"/>
<path d="M6867 148 c3 -38 2 -73 -4 -80 -5 -7 -9 -20 -8 -28 1 -8 3 -21 3 -27
1 -7 14 -13 28 -13 19 0 24 4 20 18 -2 9 -7 43 -11 75 -4 32 -13 73 -20 90
-13 30 -14 28 -8 -35z"/>
<path d="M8540 184 c0 -31 31 -35 54 -6 10 13 16 26 12 29 -3 4 -6 1 -6 -5 0
-7 -7 -12 -15 -12 -8 0 -15 4 -15 8 0 5 -7 9 -15 9 -9 0 -15 -10 -15 -23z"/>
<path d="M8670 169 c0 -5 5 -7 10 -4 6 3 10 8 10 11 0 2 -4 4 -10 4 -5 0 -10
-5 -10 -11z"/>
<path d="M7409 137 c-21 -16 -32 -47 -16 -47 7 1 37 7 67 15 33 9 42 13 22 12
-23 -3 -37 2 -45 14 -10 13 -16 15 -28 6z"/>
<path d="M9462 132 c-14 -9 -26 -12 -30 -6 -8 11 -97 12 -108 2 -4 -4 1 -10
10 -14 10 -4 14 -13 11 -24 -4 -14 -1 -16 20 -12 16 3 25 11 25 23 0 12 7 19
20 19 11 0 20 -7 20 -15 0 -8 5 -15 11 -15 5 0 8 3 6 8 -3 4 8 7 23 8 20 1 27
-3 23 -12 -3 -8 0 -14 6 -14 15 0 14 32 -1 52 -12 15 -15 15 -36 0z"/>
<path d="M7655 100 c-3 -5 1 -10 9 -10 9 0 16 5 16 10 0 6 -4 10 -9 10 -6 0
-13 -4 -16 -10z"/>
<path d="M7510 85 c0 -8 5 -15 10 -15 6 0 10 7 10 15 0 8 -4 15 -10 15 -5 0
-10 -7 -10 -15z"/>
<path d="M9275 80 c5 -9 1 -10 -14 -5 -12 4 -21 2 -21 -4 0 -6 17 -10 40 -8
42 2 49 20 11 25 -16 3 -21 0 -16 -8z"/>
<path d="M7380 70 c0 -5 5 -10 10 -10 6 0 10 5 10 10 0 6 -4 10 -10 10 -5 0
-10 -4 -10 -10z"/>
<path d="M7675 70 c3 -5 8 -10 11 -10 2 0 4 5 4 10 0 6 -5 10 -11 10 -5 0 -7
-4 -4 -10z"/>
<path d="M7355 40 c3 -5 11 -10 16 -10 6 0 7 5 4 10 -3 6 -11 10 -16 10 -6 0
-7 -4 -4 -10z"/>
<path d="M9144 35 c-10 -8 -14 -14 -9 -14 6 0 19 6 29 14 11 8 15 15 10 15 -6
0 -19 -7 -30 -15z"/>
<path d="M9288 42 c-26 -2 -35 -7 -32 -17 3 -7 -2 -15 -13 -18 -10 -3 -4 -5
14 -6 25 -1 31 2 27 14 -8 20 20 20 36 0 15 -18 42 -19 58 -3 9 9 18 9 37 0
19 -9 32 -9 46 -1 11 6 27 8 35 5 8 -3 14 1 14 9 0 25 -62 30 -222 17z"/>
<path d="M7335 10 c-3 -5 3 -10 14 -10 12 0 21 5 21 10 0 6 -6 10 -14 10 -8 0
-18 -4 -21 -10z"/>
</g>
</svg>
